<?xml version="1.0" encoding="utf-8"?>
<!-- Generator: Adobe Illustrator 24.1.2, SVG Export Plug-In . SVG Version: 6.00 Build 0)  -->
<svg version="1.1" id="Layer_1" xmlns="http://www.w3.org/2000/svg" xmlns:xlink="http://www.w3.org/1999/xlink" x="0px" y="0px"
	 viewBox="0 0 1024 1024" style="enable-background:new 0 0 1024 1024;" xml:space="preserve">
<style type="text/css">
	.st0{fill:#2F1F23;}
	.st1{fill:#FEFEFE;}
	.st2{fill:#6865F2;}
</style>
<path class="st0" d="M591.8,49.6c6.2-1,13.3-0.4,19.2,1.7c9.7,3.4,16.5,11.1,20.9,20.1c7,14.5,8.6,32.8,3.3,48.1
	c4,2.1,8.5,4.2,11.4,7.7c3.6,4.3,3.4,9.6,2.9,14.8c32.8-0.1,63.3,7,90.9,25.6c11.8,8,23,17.6,32,28.6c3.4,4.1,6.1,8.9,9.6,12.9
	c3.4,4,8,6.2,10.8,10.9c3.2,5.2,4.9,11.2,6.1,17.1c2.2,11.4,2.8,23.3-4,33.3c5.1,20.2,3,48-4.1,67.5c3.9,2.2,7.3,5.1,9.8,9
	c2,3.1,3.2,7,2.2,10.7c-0.8,3-3,5.2-5.7,6.6c-7.2,3.8-15,1.2-22.1-1.2c-13.2,17-22.2,24.1-40.2,35.3c-2.5,11.3-5,23.2-13.3,31.8
	c-6.3,6.4-13.5,8.5-22.3,8.7c3.5,4.9,7.3,9.4,11.7,13.4c10.4,9.4,25.4,17.1,39.6,18.1c4.9,0.3,9.9-0.1,14.8-0.4
	c-7.6,6.1-17.4,10.2-26.8,12.4c-6.1,1.4-12.4,1.8-18.6,2c-18.8,0.6-34.2-2.3-50.3-12.3c-3.2,13.5-11.5,25.2-17.9,37.3
	c-2.1,3.9-4,7.9-5.6,12.1c-1.6,4.1-3,8.3-4.1,12.6c-1.9,6.9-3.7,24.5-8.2,29c-0.4,0.4-0.4,0.4-1.1,0.4c-1.3,0-1.9-0.5-2.7-1.5
	c-5.2-6.1-5.1-29.6-4.8-38.4c-7.5,12.9-19.2,48.5-21.7,63.5c-1.3,7.6-0.3,15.7-1.4,21.9c-0.1,0.4-0.2,0.7-0.3,1.1
	c-0.2,0.3-0.4,0.7-0.6,0.9c-0.8,0.9-2,1.4-3.3,1.5c-5,0.1-10.8-6.5-13.9-9.9c2.6,11.3,4.5,22.7,7.2,34c3.2,12.8,7,25.5,11.4,38
	c2.1,6.1,4,12.9,7.3,18.5c15.9-14.2,35.9-23.5,56.7-27.8c-8-14.5-15.5-29.2-23.2-43.8c-3.3-6.2-7.5-12.2-10.2-18.7
	c-0.8-2-1.9-4.6-1.3-6.7c1.1-4.1,5.4-7.4,8.9-9.4c2.8-1.6,7.2-4,10.5-2.9c2.9,0.9,4.8,3.9,6.4,6.3c5.4,8.1,9.2,17.2,13.7,25.8
	c9.5,18.5,18.7,37.3,28.6,55.7c7.5,3.8,24.4,12.1,28.6,19.5c3,5.2,3.7,11.7,5.6,17.3c3.2,9.4,7.4,18.6,11.2,27.7
	c1.1,2.8,4.4,8.9,3.7,11.8c-1.9,3-5.1,4.4-8.1,6c5.2,9.6,10.5,19.2,14.8,29.3c2.9,6.7,5,13.7,7.8,20.5c9.8-4.5,18.7-10.8,27.4-17.1
	c8,2.3,16.6,3.2,24.8,5c18.8,4.3,37.5,9,56.1,13.9l92.2,25.4c6.9,1.9,13.7,3.8,20.5,5.8c4.6,1.4,9.1,3.2,13.8,4.1
	c-5.8,8.4-16.9,17.5-24.9,24.2c-49.4,41.4-119.3,78.1-180.5,98.5c-4.7,1.6-9.2,2.9-14.2,1.8c-6.4-1.4-13-4.4-19.1-6.7l-38-14.6
	c-31.2-11.6-62.1-23.6-92.9-36.3c-18.5-7.5-37.4-14.8-55.3-23.7c-3.5-1.8-14.2-6.3-15.4-9.8c1.6-4.4,11.1-3.7,15.3-4.1
	c49.7-4.2,112.7-24.8,156.7-48.2c5.8-3,11.6-6,17.2-9.2c-12.1-15.9-19.4-36-27.4-54.3c-1.8,5.7-3.6,12.8-9.2,16
	c-4.4,2.5-8.6,1.3-13.1,0.2c-7,6.3-10.3,6-19.1,5.8l-0.4,0.4l0,0.5l-0.4-0.4l0,0.3c-0.7,0.9-1.4,1.4-2.3,2c-2.8,1.5-6.3,1.5-9.4,1.6
	c-14,0.9-28.3-0.4-41.7-4.7c-13.5-4.3-21.3-10.3-27.7-23c-21.4-6.4-41.8-14.6-62.7-22.3c-3.2,7.1-7,13.9-10.8,20.7
	c-13.2,24.1-26.3,42.3-47.2,60.4c15.9,3.1,27.1,8.7,40,18.3c2.2,6.4,3.3,18.9,0.5,25.2c-4.6,10.4-21.9,18.1-32,21.7
	c-6.4,2.2-12.5,3.4-19.3,3c-16.7-0.8-33.8-5-50.2-8.4c-26.6-5.4-53-11.7-79.3-18.6c-13.3-3.5-27.2-6.2-39.7-12.2
	c11.1,14.3,34.6,21.3,50.6,29.1c4.7,2.3,14.9,7.2,16.7,12.5c0.7,2.1-0.2,4.3,0.6,6.6c1.8,5,2.8,10.7,0.6,15.7
	c-1.1,2.5-2.9,4.5-5,6.2c-4.1,3.3-9.2,5.6-13.8,8c-12.6,6.6-25.3,12.7-38.7,17.6c-6.3,2.3-15.9,6.6-22.5,6.2
	c-6.7-0.3-21.1-5.3-28.4-7.2c-23.1-6.1-46-12.8-69-19.2c-14.6-4-29.2-8.3-43.6-12.9c-12.2-3.8-24.4-7.5-36.1-12.9
	c-0.3-4.8-2-16-0.2-20.1c2.1-4.5,34.3-14.4,40.5-17.2c0.3-1.6,0.5-3.3,0.8-4.9c1.7-9.8,5.7-16.7,14-22.4c-0.7-5-0.9-10.1-1.3-15.1
	c-7.3-4.2-14.4-9.4-19.8-15.9c-15.9,7.9-33.9,12.9-51.8,12.7c-14.5-0.2-29.4-4.5-39.7-15.2c-19.7-20.5-21.4-58.5-20.6-85.4
	c1.9-70,40.3-181.8,91.5-230c-0.1-1.8-0.2-3.6-0.1-5.4c0.9-8.7,11.4-21.7,18.2-27.2c0.8-10.3,3.5-20.5,10.7-28.3c4.5-5,9-7,15.6-7.3
	c5.2-8.7,11.2-17.5,17.7-25.3c38.8-46.6,93.4-91.5,148.9-116.5c10.6-4.7,21.4-9,32.3-12.7c7.9-2.7,16.9-4.7,24.2-8.8
	c5.4-3.1,9.2-7.7,13.2-12.4c8.4-10,17.7-16.8,31-17.9c16.5-1.4,32.4,8.3,44.6,18.5c2.3-8.5,6.2-16.7,12.2-23.2
	c10.2-11.2,25.9-19,41-19.7c0.4-1.3,0.9-2.6,1.4-3.9c0.5-1.3,1.1-2.5,1.8-3.7c0.7-1.2,1.4-2.4,2.2-3.5c0.8-1.1,1.6-2.2,2.5-3.3
	c7.7-9.1,17.4-13.1,29.1-14c-2.9-3.4-4.8-7.1-6.7-11.1c-14.5-1.1-31-6.1-43.5-13.6c-3.7-2.2-8.4-5.5-9.3-10
	c-1.6-7.4,10.4-27,14.8-33.2C539,74.9,563.2,54.5,591.8,49.6z"/>
<path class="st0" d="M355.7,886.4c2.1,1.3,3.5,1.9,4.1,4.4l-0.8,0.4l-2.3,0c-1.6-0.6-2.2-2.2-3-3.5L355.7,886.4z"/>
<path class="st1" d="M569.6,244.1c1.2,0.4,2,0.7,3,1.6c0,2-1.9,3.7-3.2,5.3l-0.8,1.1l-0.4-0.2C568.2,249.3,569,246.7,569.6,244.1z"
	/>
<path class="st1" d="M650.5,610.5c1.1,0,1.4,0,2.3,0.6c-0.1,0.3-0.2,0.6-0.2,0.9c0,0.2,0,0.5-0.1,0.7c-0.8,1.7-2.4,2.1-4,2.8
	c-0.1-0.1-0.2-0.1-0.3-0.2c-1-0.9-1.3-1.5-1.3-2.8C647.8,611.1,648.9,610.9,650.5,610.5z"/>
<path class="st2" d="M359.8,890.8l1.1,1.5c-0.4,1.3-1,1.8-2.1,2.5c-1.6,1-3.5,1.8-5.3,2.6l-0.3-0.4c-1.1-0.5-1.6-0.4-2.8-0.4
	c2.9-1.6,6.1-3.2,8.5-5.5L359.8,890.8z"/>
<path class="st1" d="M644.8,601.2c1.4,0.3,2.2,0.7,3.1,1.9c0.8,1,0.8,1.7,0.8,2.9l-1.3,0.7c-1,0.2-1.8,0.2-2.8,0.1
	c-1.3-0.8-1.5-0.9-2-2.3C642.9,602.6,643.3,602.5,644.8,601.2z"/>
<path class="st1" d="M641.8,591.9c0.4,0.4,0.3,0.2,0.6,0.8c0.7,1.4,1.4,3.1,0.7,4.6c-0.6,1.3-2.1,1.4-3.3,1.8
	c-1.2-1.3-1.6-1.8-1.7-3.6C638.9,593.8,640.3,593,641.8,591.9z"/>
<path class="st1" d="M652.4,598.5c0.1,0,0.1,0.1,0.2,0.2c1.4,1.6,2.7,3.2,2.6,5.5c-1.1,1.3-1.9,1.2-3.5,1.6c-1.1-1.2-2.2-3-2.5-4.6
	C649.8,599.4,650.8,599.3,652.4,598.5z"/>
<path class="st1" d="M646.9,588.7c1.3,0.5,2.5,2,3.1,3.2c0.6,1,0.3,1.9-0.1,2.9l-2.3,1.2c-1.2,0.4-1,0.2-2-0.3
	c-0.7-1.2-1.1-2.3-1-3.7C645,590.1,645.5,589.9,646.9,588.7z"/>
<path class="st1" d="M626.9,441c1.9,0.7,3.8,1.2,5.8,1.7l-5.2,6.7c-0.6,0.9-1.3,1.5-2.1,2.1l-0.7-0.2C624,448.2,625.9,444,626.9,441
	z"/>
<path class="st1" d="M500.4,828.8c3.2,2,6.5,4.3,9.2,6.9c-2,1.2-4,2.3-5.6,4c-0.5-1.8-1.3-3.8-2.5-5.3c-1.4-1.8-2.7-2.5-5-2.8
	l-2.5-0.7C495.1,829.7,498.8,829.3,500.4,828.8z"/>
<path class="st0" d="M496.6,831.5c2.2,0.3,3.6,1,5,2.8c1.1,1.5,2,3.5,2.5,5.3l-3.7,0.3c-3.7-3.6-6.5-5.5-11.4-7
	c0.3-0.4,0.6-0.7,0.9-1c0.7-0.6,1.6-0.4,2.4-0.4C493.7,831.6,495.1,831.6,496.6,831.5z"/>
<path class="st1" d="M541.5,389.3c6.5,0.9,13.6,1.5,19.6-1.6c1.7-0.9,2.5-1.6,4.4-1c-4.2,3.9-9.7,8.1-15.7,7.7
	c-3-0.2-5.6-1.8-7.5-4.1C542,390,541.8,389.6,541.5,389.3z"/>
<path class="st1" d="M150.7,445c1.6-6.2,4.5-13.6,8.9-18.4c1.1-1.2,1.9-1.7,3.5-1.8l1.3,1.7c-1.5,2.3-12,18.2-12.9,18.8L150.7,445z"
	/>
<path class="st1" d="M488.9,833c4.9,1.5,7.8,3.3,11.4,7c-0.3,1.7-0.9,3.2-2.2,4.4c-3.1,0.4-6.5-4.4-9.1-6.1
	c-1.7-1.1-3.8-1.9-5.6-2.7C485.1,834.6,487.1,833.8,488.9,833z"/>
<path class="st2" d="M728.1,754.5c0.5,0.1,1.3,0.2,1.7,0.3c2,0.7,2.8,3.4,3.6,5.2c2.3,5,13,26.1,11.5,30.5c-0.3-0.3-0.7-0.4-1-0.8
	c-1.3-1.7-3.8-9.2-4.9-11.7C735.6,770.1,731.3,762.5,728.1,754.5z"/>
<path class="st1" d="M476.9,839.5c4.3,0.4,9,1.9,12.3,4.9c1.1,1,1.7,1.9,1.8,3.5c-0.7,1.5-1.4,1.7-2.8,2.5l-2.5,1.1
	c-2.6-0.7-5.5-7.5-10.2-10.4l-0.6-0.4l0.2-0.5L476.9,839.5z"/>
<path class="st1" d="M450.1,831.1c3.8,0.3,8.5,2.4,12.2,3.6c3.5,1.1,7,1.8,10.6,2.5c-2.2,1-4.5,1.8-6.7,2.6
	c-4.5,0.7-17-5.1-22.1-6.7C446,832.2,448,831.6,450.1,831.1z"/>
<path class="st1" d="M461.3,826c6.5,2,13.3,3,19.8,5.1c-2,0.9-3.9,1.8-5.9,2.7c-6.9-1.2-13.9-2.7-20.8-4L461.3,826z"/>
<path class="st1" d="M751.3,791.9c0.6,0.2,0.5,0.1,0.9,0.6c2,2.9,7.4,17.7,6.7,20.6l-0.7,0.1l-1.8-2c-3.9-4.8-8.1-9.6-11.2-14.9
	C747.1,794.6,749.3,793.3,751.3,791.9z"/>
<path class="st1" d="M471.5,819c7.3,1.7,15.2,4,21.8,7.5c-2.3,0.7-4.5,1.3-6.8,1.7c-7.6-1.6-15.1-2.9-22.8-3.7L471.5,819z"/>
<path class="st2" d="M484.4,335.6c0,0.1-16.4,20.4-17.6,21.5c-0.4-4.8-0.8-9.6-1.3-14.3C471.7,339.9,477.7,337.5,484.4,335.6z"/>
<path class="st2" d="M654.4,617.8l0.4,0.3c1.5,2.7,2.5,5.8,3.9,8.6c4.3,8.7,8.8,17.4,13.4,26c1.7,3.2,6.3,9.5,6.4,12.9l-1.1,0.5
	c-4.5-4.3-22.2-38.8-25.9-46.4C652.3,618.7,653.2,618.4,654.4,617.8z"/>
<path class="st1" d="M542.2,197.4c3.4-9.8,6.5-15.4,15.9-20.4l4.4,4.8c-5.1,2.1-9.7,4.5-12,9.9c-1.2,2.9-1.3,5.8-1.3,8.9
	C546.9,199.3,544.6,198.3,542.2,197.4z"/>
<path class="st2" d="M661.5,615.9c0.5,0.2,0.4,0.2,0.8,0.6c3.1,3.9,9,17.9,11.9,23.5c4.3,8.5,9.1,16.7,13.3,25.3
	c0.4,0.9,0.7,1.4,0.5,2.4l-1.3,0.1c-0.8-0.3-2.3-0.7-2.9-1.3c-3.1-2.8-21.8-41.1-25.7-48.4C658.9,616.8,660.2,616.6,661.5,615.9z"/>
<path class="st1" d="M412.8,239.8c0.3,3.6-0.1,7.2-0.4,10.8c-6.6,8.4-19.4,17.7-29.6,20.8c-0.9-1.4-1.7-2.9-2.5-4.3
	C395.5,259.8,402,252.4,412.8,239.8z"/>
<path class="st2" d="M620.4,138.2c1-0.1,2-0.2,3.1-0.2c1,0,2,0,3.1,0c1,0,2,0.1,3.1,0.2c1,0.1,2,0.2,3,0.4c1,0.2,2,0.3,3,0.6
	c1,0.2,2,0.5,3,0.7c1,0.3,2,0.6,2.9,0.9c1,0.3,1.9,0.7,2.9,1.1c-22.3,0.3-37.6,3.1-58.1,12.1c-4.8,2.1-9.1,5.8-14,7.3l0.1-0.6
	C586.6,147.4,600.9,139.8,620.4,138.2z"/>
<path class="st1" d="M525.2,113.8c0.8-1.5,1.6-2.9,2.5-4.3c0.9-1.4,1.8-2.8,2.7-4.2c0.9-1.4,1.9-2.8,2.9-4.1c1-1.3,2-2.7,3.1-4
	c1-1.3,2.1-2.6,3.2-3.8s2.2-2.5,3.4-3.7c1.2-1.2,2.3-2.4,3.6-3.5c1.2-1.2,2.4-2.3,3.7-3.4c1.3-1.1,2.5-2.2,3.9-3.2c1.3-1,2.6-2,4-3
	c1.4-1,2.7-1.9,4.1-2.8c1.4-0.9,2.8-1.8,4.2-2.7c1.4-0.9,2.9-1.7,4.4-2.5c1.5-0.8,3-1.5,4.5-2.3c1.5-0.7,3-1.4,4.6-2.1
	c1.5-0.7,3.1-1.3,4.7-1.9c7.8-2.9,17.4-4.8,25.2-1c8.2,4,12.5,11.8,15.5,20.1c-3-1.4-5-8.2-7.4-10.8c-5.8-6.3-13.6-6.4-21.5-6.6
	l-2-0.7c-0.2,0.1-0.3,0.2-0.5,0.3c-3.8,2.2-9.2,3.1-13.3,4.7c-10.9,4.3-22.1,10.8-31.1,18.4c-4.9,4.1-9.6,9.2-13.7,14
	C533.7,102.9,527.1,113,525.2,113.8z"/>
<path class="st2" d="M273.6,923.1c17.5-1.2,27.7-5.8,43.1-13.8c2.3-1.2,5.5-1.9,7.3-3.8c0.7-0.7,1-1.2,2-1.5c4-1.2,8.3-1.5,12.3-2.7
	c4.1-1.2,8-3.2,12.1-4.6c1.1,0,1.7-0.1,2.8,0.4l0.3,0.4c-20.1,11.9-42.8,22.1-64.6,30.4C283.7,926.4,278.7,924.7,273.6,923.1z"/>
<path class="st1" d="M771.7,340.2c3.9,0.1,7.5,0.3,11.3,1.8c4.8,1.9,9.8,5.5,11.8,10.5c0.6,1.6,1,3.4,0.2,5
	c-0.4,0.9-1.3,1.4-2.3,1.7c-5.2,1.3-12-3.5-16.4-5.9c-10.5-5.2-18.8-6.2-30.3-3.8C753.6,344.2,762.4,341,771.7,340.2z"/>
<path class="st1" d="M125.6,580.2c5.9-6.1,12.7-11.6,19.1-17.1c30.1-26.1,62.4-47.8,100.2-61.3c7.2-2.6,14.4-5.2,21.9-6.4
	c-4.6,4-19.9,8-26.8,11.1c-8.9,4.1-17.6,8.5-26.1,13.2c-20.3,11-40.1,24.1-58.7,37.8C150.1,561.3,129.3,579.4,125.6,580.2z"/>
<path class="st2" d="M412.9,820.1c5.3,4.4,11.6,7.6,17.7,10.5c-11.4,2.1-18.4,6.8-25.6,15.8c-0.9,1.2-1.9,2.3-2.9,3.5l-12.7-2.7
	C394.3,834,401.6,827.6,412.9,820.1z"/>
<path class="st2" d="M136,517.3c1.9,2.7,3.4,5.8,5.3,8.5c3.7,5.3,7.9,10.1,12.1,15c-7.3,6.6-14,13.8-20.6,21c-3.1,3.4-6,7-8.8,10.6
	C128,554.1,129.8,535.1,136,517.3z"/>
<path class="st1" d="M317.6,867.7c13.9,3.3,26.6,10.5,38.1,18.7l-1.9,1.3c-9.2,4.2-18,7.4-27.9,9.5c0-1.6,0-3.2-0.2-4.7
	c-1.5-9.8-8.5-15.6-16-21C312.4,870.4,315,869.2,317.6,867.7z"/>
<path class="st0" d="M326.3,874c5.6-0.2,11.5,1.5,16.4,4.4c2,1.2,4.4,3.2,4.9,5.6c0.3,1.5-1.2,3-2,4.1c-0.1,0.1-0.3,0.2-0.4,0.3
	c-1.5,0.8-3.4,0.1-4.8-0.4c-4.4-1.5-12.8-5.8-14.4-10.3C325.2,876.2,325.7,875.3,326.3,874z"/>
<path class="st1" d="M614.3,124.7c4.6-0.3,9.1,0,13.5,1.2c7.1,2,11,5.7,14.4,12c-3.7-1.4-7.5-2.7-11.4-3.5
	c-15.1-3.1-30.2,1.7-42.9,9.9c-5.7,4-12.1,8.3-15.8,14.4c-0.5,0.8-0.1,0.5-1,0.8c-0.7-0.8-0.6-0.4-0.8-1.4
	c-0.6-4.5,2.2-9.9,4.9-13.3C585.1,132.8,599.2,126.2,614.3,124.7z"/>
<path class="st2" d="M146.9,865.5c0.3,0.6,0.2,0.3,0.4,1c0.1,0.5,0.3,1.1,0.4,1.6c0.7,2.2,1.4,4.7,2.8,6.6c5.6,7.8,19,13,27.6,16.5
	c2.7,1.1,6.2,2,8.7,3.5c1,0.6,1,0.8,1.3,1.8l-0.6,0.8c-4.3,1.6-19.2-3.6-24.3-5L114.4,877C125.3,873.4,136.1,869.7,146.9,865.5z"/>
<path class="st2" d="M596.3,63.9c7.9,0.2,15.6,0.3,21.5,6.6c2.5,2.6,4.4,9.4,7.4,10.8c5.3,9.7,4.2,25.4,4.3,36.3
	c-3.9-1-8.5-1.4-12.1-3c-0.2-0.5-0.4-1-0.6-1.5C613.9,94.1,609.2,78.7,596.3,63.9z"/>
<path class="st1" d="M590.6,413.3c2.4,1.9,6.9,11.5,9.1,14.7c8,11.2,23.5,24.8,28.3,37.3l-0.6,0.8c-3.6,0.6-7.1,0.9-10.7,0.4
	c-6.7-0.9-12.3-4.1-16.5-9.4C591.2,445.5,588.8,427.5,590.6,413.3z"/>
<path class="st2" d="M375.2,783.6c0.1,0,0.2-0.1,0.3-0.1c2.6,0.1,8.5,8.5,10.4,10.7c-12.5,6.7-25.4,10-39.5,11.3
	c-4.1,0.1-8,0-12-0.7l0.6-16.8C348.8,788.1,361.6,786.5,375.2,783.6z"/>
<path class="st2" d="M574.1,605.9l0.4,0.2c2.1,3.2,5.8,24.7,6.9,29.9c-12.5,1-23.4,8-33.2,15.4l-3.2-3.2c-3.9-3.7-8.2-7.1-12.3-10.6
	C543.9,625.7,562.5,616.9,574.1,605.9z"/>
<path class="st1" d="M470.2,493.4c1.5,1.9,6.6,20.8,8.2,25.2c-4.9,11.3-10.4,21.9-16.3,32.7c-2.4,4.3-4.6,9.1-7.7,12.9
	c-1-0.1-1.6-0.8-2.5-1.5c-3.9-3.5-7.8-7.1-11.6-10.6c6-10.7,12.6-21.2,18.3-32.1C462.9,511.3,466.5,502.3,470.2,493.4z"/>
<path class="st1" d="M435.2,836.6c3.6,0.7,7.6,1.9,10.9,3.5c6,2.9,11,7.9,18,8.4c2.6,0.2,5.6-0.5,8.1-1c1.8,0.8,3.6,1.8,5.1,3.2
	c1.3,1.2,2.4,2.8,2.3,4.6c-0.2,1.9-1.8,3.4-3.3,4.5c-5.5,3.8-12,5.2-18.5,4c-16-4.5-32.2-8-48.2-12.1c0.3-0.6,0.7-1.2,1.1-1.8
	C415.8,842.1,426.6,838.4,435.2,836.6z"/>
<path class="st1" d="M102.9,796.3c-4,0.5-7.9,1-12,1c-11.3-0.1-23.8-3.8-31.8-12.1c-14.7-15.2-16.6-42.3-16.3-62.3
	c1-62.3,26-140.4,57.5-193.9c6.6-11.3,13.4-22.7,22.9-31.9c-6.1,11.2-12.9,21.9-18.1,33.6c-6.1,5-10,15.3-13.4,22.3
	C70.5,596,53,651.5,48.2,699.3c-2.6,25.6-4.7,61.6,12.5,82.7c7,8.6,16.3,12.5,27.2,13.5C91.5,795.8,100.3,795,102.9,796.3z"/>
<path class="st1" d="M474.9,268.9c1,1,1.5,4.7,2,6.3c3.2,10.9,8.1,19,17.2,25.9c-10.2,8.4-19.6,15.7-27.4,26.6l-3.4,4.5
	c-1.8-14.7-6.4-29.9-12.2-43.6C458.7,281.7,467.2,275.8,474.9,268.9z"/>
<path class="st1" d="M174.7,422.1c-0.3-0.3-0.8-0.8-1-1.2c-0.6-0.9-0.5-1.4-0.1-2.4c2.7-7.1,22.9-30.5,28.5-36.5
	c37.9-40.2,78.2-70.4,128.2-93.8c14-6.6,28.7-11.7,42.8-18.1c1.3,1.9,2.4,3.9,3.5,5.9c-20.9,7.4-42.3,15.3-62.1,25.3
	c-44.4,22.4-83.3,56.3-117,92.5c-5.4,5.8-10.4,12.1-15.2,18.4C179.8,415.4,177.5,419.2,174.7,422.1z"/>
<path class="st2" d="M246.4,860.2c19.6-1.3,48.7,7.1,64.4,18.9c4.9,3.7,9.8,9.8,10.4,16.1c0.2,1.9,0.2,4.5-1,6
	c-3-1.4-3.9-8.4-6-11.1c-1.5-2-3.1-4-4.9-5.8c-11.6-11.6-28.8-14.7-44.6-14.7c-15.6-0.1-32.6,1.4-44.8,12
	c-4.3,3.8-11.6,10.7-11.8,16.8c-0.1,2.4,1.1,3.6,2.6,5.2c-5.7-1.6-11.4-3.4-17.1-5.1c2.1-6.5,5.1-12.5,9.6-17.8
	C214.4,867.5,229.5,861.5,246.4,860.2z"/>
<path class="st2" d="M581.2,639l0.3,0.1c2,1.8,3.5,11.2,4.3,14.1c4.1,15.2,8.3,29.5,15.9,43.5c-8.7-2.6-17.2-6.8-25.5-10.3
	c-5-2-10-4.2-15-6.3c3.4-3.2,4.3-5.9,5.6-10.2c-4.2-6.1-10.5-11.2-15.9-16.2C560.8,647.5,570.1,642.6,581.2,639z"/>
<path class="st2" d="M337.1,712.9c3.8,6.1,6.4,14.5,9.6,21.1c7.6,15.6,16.7,31.1,26.9,45.1l-5.8,2c-10.8,2.7-21.7,3.3-32.7,3.4
	C334.8,760.7,335.5,736.8,337.1,712.9z"/>
<path class="st2" d="M112.6,879.3c3.5,2.9,7.1,4.9,11.2,6.7c12.2,5.3,25.7,8.6,38.5,12.1c11.3,3.1,22.6,6.6,34.1,8.9
	c11.3,2.3,23.1,3.2,34.2,6.3c8,2.3,15.1,6.8,22.9,9.7c10.2,3.8,24.1,6.7,34.9,9.3c22.2-8.4,52.4-20.6,71.6-33.9l-0.1,6.8
	c-0.1,0.5-0.2,1.4-0.4,1.9c-0.1,0.2-0.6,1-0.8,1.2c-1.4,1.3-44.8,20.6-51.1,23c-6.9,2.7-13.9,5-20.9,7.3l-105.2-30.1
	c-13.6-3.9-27.1-7.8-40.6-11.9c-9-2.7-18.2-5.1-26.8-8.8C113.9,885.1,113.1,882.1,112.6,879.3z"/>
<path class="st1" d="M577.8,247.5c4.2,1.5,8.4,2.8,12.8,3.8c-6.6,5.8-12.9,11.9-18.5,18.7c-19.4,23.5-32.9,62.2-29.8,92.5
	c0.6,6.2,2.4,15.8,7.7,19.8c1.7,1.3,3.5,1.4,5.6,1c9.4-1.9,16.3-13.8,21.4-21.1c0.7,4.1,0.8,8.3,1.7,12.4c-0.2,0.1-0.4,0.3-0.6,0.4
	c-4.6,3.4-7.9,8.1-12.5,11.5c-1.8-0.6-2.7,0.2-4.4,1c-6,3.1-13.1,2.5-19.6,1.6c-8.4-10.3-9.3-35.5-8.3-48.2
	c2.2-25.9,13.5-49,26.9-70.8C565.3,262.1,570.4,253.8,577.8,247.5z"/>
<path class="st2" d="M504.7,516.6c2.7,5.5,4.4,14,7.1,20.3c-6.9,13.2-13.4,26.8-20.7,39.9c-4,7.2-8.6,14.2-13,21.2
	c-2.5-1.2-5-2.5-7.5-3.8c-0.1-8.6-0.9-14.2-6.7-21c-1.5-2-3.4-3.8-5.2-5.7c7-14.6,15.8-28,21.6-43.2c2.8,6.6,11,24.4,16.7,27.8
	c0.8,0,1.2,0.3,1.8-0.3C502.2,549.2,503.8,522.5,504.7,516.6z"/>
<path class="st2" d="M306.7,833.4c2-0.3,18.5,5.5,21.9,6.4c10.8,2.9,21.8,5.2,32.7,7.8c26.6,6.6,53,13.1,79.8,19
	c7,1.5,20.2,5.6,26.7,4.9c10-1.2,40-24,46.1-31.4c0,4.6,0.6,10.5-1.9,14.5c-1.1,1.2-2.3,2.2-3.6,3.3c-8.6,7-25.3,17.6-36.3,19.3
	c-23.4,3.7-106.3-20-134.4-27.8c-14.3-4-29.2-9.2-44-10.8C298,836.8,302.4,835.2,306.7,833.4z"/>
<path class="st1" d="M393,801.9c3.2,1.8,11.8,11.9,15.8,15.2c-2.3,1-4.6,2.1-6.7,3.4c-9.1,5.9-15.8,15-18.1,25.7
	c-14.5-3.5-29-7.1-43.4-10.9c-8.5-2.4-17-4.6-25.8-5.7c6.5-3.7,12.2-7.8,17.7-12.9C351.6,818.3,377.8,814.3,393,801.9z"/>
<path class="st1" d="M145.3,458.4c3.1,3.3,5.5,10.1,8.3,14.1c10.3,14.6,23.6,28.9,37.7,39.9c-7,4.1-13.6,8.5-20,13.3l-7.8,6.5
	c-13.8-11-27.2-32.3-32.9-48.8C132.8,473.3,138.4,465.9,145.3,458.4z"/>
<path class="st1" d="M258,876.7c10.9-1.3,24.8-0.2,35,4.2c7.3,3.1,14.7,9.3,17.5,16.9c0.8,2.1,1,4.4-0.2,6.4
	c-1.8,3.1-6.5,3.7-9.7,4.7c0.1-4.8-0.5-9-3.1-13.1c-3.9-6.1-9.8-8.3-16.5-9.9c4.8,6.5,11.1,9.6,14.3,17.6c0.7,1.9,1.3,4.3,0.2,6.2
	c-2.2,3.6-12.4,5.2-16.4,6.3c0-0.3,0.1-0.6,0.1-0.9c1-7.4-1.1-13.3-5.6-19c-2.2-2.1-4.5-3.8-7.2-5.3c-2.7-1.5-9.4-3.7-12.4-2.8
	l0.6,1.5l-0.4-0.5c4.3,4.3,10.3,6,14.4,10.8c4.2,5,5,10.6,4.4,16.8c-3.5,0.7-6.9,1.3-10.5,1.6c-10.5-8.2-35-15.2-48.1-19.9
	c1.2-1.9,2.6-3.7,4.1-5.5C228.7,880.6,242.7,877.9,258,876.7z"/>
<path class="st1" d="M164.5,426.5c2.4,5.4,6.4,10.5,10,15.1c16.4,21.2,35.7,36.3,58.1,50.6c-10.8,4.5-21.9,8.9-32,14.8
	c-20-14.2-39.6-31.3-52.2-52.9c0.7-3,1.2-6.3,2.3-9.1l0.9,0.3C152.5,444.7,163,428.8,164.5,426.5z"/>
<path class="st0" d="M501.7,715.3c2.4,0.6,11.6,7.2,14.4,8.9c-9.4,23.1-28.5,54.4-47.5,71.1c-4.9,4.3-10.2,7.6-15.8,10.9
	c-1.9,0.9-4.1,1.8-6.3,1.8c-1.6,0-3.1-0.3-4.2-1.5c-1.9-2-2.3-5.5-2.3-8.2C440.6,772.9,483.6,732.2,501.7,715.3z"/>
<path class="st2" d="M516.8,547.2c2.2,1.6,4.1,7.9,5.3,10.5c3.6,8,8,16.8,13.3,23.8c3.8,5,20.4,22.4,26.4,22.4
	c1.5,0,1.8-0.4,2.8-1.4c0.6-1.4,0.8-2.5,0.8-3.9c-0.1-3.6-1.1-7.4-1.5-11c-1.1-9-2.1-18.1-3-27.1c2.6,7.9,6.1,15.6,8.4,23.6
	c1.8,6.2,2.8,12.7,4.3,19l-5.2,3.2c-13.8,8.5-26.2,18.7-39,28.6c-12-10.4-23.8-20.9-36.7-30.2C505.1,586.1,510.3,568,516.8,547.2z"
	/>
<path class="st1" d="M170.5,821.2c6.2,2.6,12,6.4,18.3,8.8c28.8,11,60.2,12.7,90.5,9.4c11.8,20.8,5.5,16.3,28.3,24.9
	c-1.4,0.9-2.6,2-3.9,3.1c-17.3-7.3-34.2-12.1-53-13.4c-6.2-0.2-12.2,0-18.3,1.5c-1.1,0.3-2.2,0.6-3.2,0.9c-1.1,0.3-2.1,0.7-3.2,1
	c-1,0.4-2.1,0.8-3.1,1.2c-1,0.4-2,0.9-3.1,1.3c-1,0.5-2,1-3,1.5c-1,0.5-1.9,1.1-2.9,1.6c-1,0.6-1.9,1.2-2.8,1.8
	c-0.9,0.6-1.8,1.3-2.7,1.9c-0.9,0.7-1.8,1.4-2.6,2.1c-0.9,0.7-1.7,1.4-2.5,2.2c-0.8,0.8-1.6,1.5-2.4,2.3c-0.8,0.8-1.5,1.6-2.3,2.4
	c-0.7,0.8-1.5,1.7-2.2,2.5c-0.7,0.9-1.4,1.8-2,2.7c-0.7,0.9-1.3,1.8-1.9,2.8c-0.6,0.9-1.2,1.9-1.8,2.8c-8.7-5.1-21.3-8.1-28.8-14.3
	c-2.9-2.3-4.4-5.3-4.8-9c-0.9-9.3,3.4-17.3,9-24.3c4.8,4,13.2,9.3,20,8.1c1.4-0.2,2.2-0.6,2.9-1.8c0.5-0.8,0.4-0.5,0.1-1.6
	c-2.6-2.4-6-3.9-9-5.8C174.1,834,171.9,828.1,170.5,821.2z"/>
<path class="st2" d="M127.2,735.7c2.9,2.3,7.1,11.6,9.5,15.3c3.5,5.4,8.3,10.5,12.8,15.2c21.4,22.7,47.3,36.2,77.6,42.7
	c29.1,6.3,68.4,3.7,93.8-12.9c0.1,5.4,0.3,10.7-0.5,16l-2.7,2.5c-3.7,2.7-7.7,4.8-11.9,6.6c-33.5,14.3-76.4,11.6-109.9-2
	c-33.5-13.6-59.1-39.1-73.2-72.4C124.1,743,125.7,739.4,127.2,735.7z"/>
<path class="st1" d="M480.3,609.1c0.1,0,0.3-0.1,0.4-0.1c3.3-0.1,16,11.1,19.2,13.7c-4.3,1.3-8.5,2.5-12.7,4.1
	c-2.4,0.9-4.8,1.9-7.2,2.8c-2.4,1-4.8,2-7.2,3c-2.4,1-4.7,2.1-7.1,3.2c-2.3,1.1-4.7,2.3-7,3.4c-2.3,1.2-4.6,2.4-6.9,3.6
	s-4.5,2.5-6.8,3.8c-2.2,1.3-4.5,2.7-6.6,4c-2.2,1.4-4.4,2.8-6.5,4.2c-2.2,1.4-4.3,2.9-6.4,4.4c-2.1,1.5-4.2,3-6.3,4.6
	c-2.1,1.6-4.1,3.2-6.1,4.8c-2,1.6-4,3.3-6,5c-2,1.7-3.9,3.4-5.8,5.1c-1.9,1.7-3.8,3.5-5.7,5.3c-1.9,1.8-3.7,3.6-5.5,5.5
	c-1.8,1.8-3.6,3.7-5.4,5.6c-8.8,9.5-17.1,19.4-22.6,31.2l-2.3,5.4c-5-10.2-9.9-20.5-13.8-31.1c8.5-9.2,15.9-19.4,24.6-28.4
	C399.7,642.1,438.5,617.1,480.3,609.1z"/>
<path class="st2" d="M525.2,113.8c1.9-0.8,8.5-10.9,10.5-13.1c4.1-4.9,8.8-9.9,13.7-14c9-7.6,20.2-14.1,31.1-18.4
	c4.1-1.6,9.5-2.5,13.3-4.7c0.2-0.1,0.3-0.2,0.5-0.3c1,3.6,5.1,7.9,7.2,11.1c2.3,3.5,4.5,7.2,6.1,11c2.5,6,3.9,12.2,5.2,18.5
	c0.7,3.4,1.1,7.6,2.5,10.7c-2.1,1.3-6.4,1.1-8.9,1.4c-16,1.8-29.8,11.5-39.6,23.8c-11.5-5.9-23.9-10.5-36.7-12.9
	c12,4.8,23.8,8.4,35.2,14.7l-3.4,6c-13.1-3.7-32.6-9.3-42.8-18.3C519.9,124.4,521.7,117.4,525.2,113.8z"/>
<path class="st1" d="M640.8,151.2c10.6-1.5,24.8-0.2,35.2,1.5c25.7,4.3,49.2,15.5,69.3,31.9c5.5,4.5,11.1,9.3,15.2,15.1
	c-21.6-7.9-42.1-7.4-64.6-5.6c-44,4.8-85.3,10.6-123.1-18.4C592.6,161.2,616.3,153.2,640.8,151.2z"/>
<path class="st1" d="M538.5,656c5.9,2.4,12.1,9.5,16.8,14c-5.4,2.1-10.6,4.5-15.8,7.2c-5.1,2.6-10.1,5.5-15,8.7
	c-30.1,19.2-71.6,56.5-87.4,88.6c-3.7,7.6-9.5,20.3-6.3,28.9c1.3,3.6,4.2,6.9,7.7,8.4c4.1,1.8,10,0.8,14.1-0.8
	c20.3-7.8,44.8-44.2,55.5-63.2c3.9-6.9,7.1-14.1,10.4-21.3l7.1,4l-9.1,16.8c-12.9,23-27.9,45.8-49,62.1c-8.6,6.7-18,12.5-29.4,10.9
	c-17.6-2.5-36.4-24-46.6-37.8c0.3-0.6,0.5-1.2,0.8-1.8c18.1-35.9,76.2-88,110.8-108.7C514.5,665.4,526.2,660.2,538.5,656z"/>
<path class="st2" d="M562.5,181.8c22.5,20.5,57.2,27.9,86.9,26.5c37.5-1.7,100.6-18,131.2,9.9c8.9,8.1,11.3,20.9,11.8,32.5
	c0.1,2.2,0.2,4.7-1.3,6.5l-0.9,0.1c-9.7-13.8-21.7-22.3-38.4-25.3c-17.3-3-34.6-0.3-51.7,2.3c-39.7,6.2-94.3,20.3-131.2-1.4
	c-4.4-13.1-8.8-23.4-19.7-32.5c0-3.1,0.1-6,1.3-8.9C552.7,186.3,557.4,183.9,562.5,181.8z"/>
<path class="st0" d="M554.5,198.3c2.3,0.2,23.4,15.1,27.6,17.3c9.8,5.2,19.8,8.7,30.8,10c16.6,2,34.3,0.9,50.8-1.6
	c35.2-5.4,74.5-19.3,108.2-0.6c6.2,3.5,11.7,7.8,13.8,14.9l-0.8,0.9c-1.4,0.3-4.8-3.1-6.1-4.1c-4.8-3.7-9.8-7.2-15.4-9.6
	c-28.3-12.2-65.4-2.3-94.6,2c-17.6,2.6-35.5,4.1-53.2,1.8c-19.8-2.6-38.6-10.3-53.6-23.6C559.4,203.3,556.6,201.1,554.5,198.3z"/>
<path class="st1" d="M501.3,627.1c0.2,0,0.5-0.1,0.7-0.1c3.8-0.3,28.6,21.9,33,25.7c-5.9,2.2-11.8,4.4-17.6,7
	c-13.4,6.1-26.1,14-38,22.7c-25.2,18.4-76.9,65.2-87.8,94.4l-1.4,3.9c-10.9-14.3-20.6-29.9-29.1-45.7c1.2-2.2,2.4-4.4,3.7-6.6
	c5.6-9.7,13.2-18.6,20.8-26.8C415.1,669.5,458.9,638.2,501.3,627.1z"/>
<path class="st1" d="M412.8,239.8c5.4-6.7,12-11.8,20.8-12.7c14.9-1.5,30.1,8.1,41.8,16.1c-0.2,2.4-0.5,4.9-0.5,7.3
	c-8.6-8.6-25.7-17.4-38.1-17.2c-2.8,0-5.8,0.7-7.8,2.8c-2,2-2.7,4.5-2.5,7.3c0.7,11.5,14.5,38,19.3,50.4c4.4,11.2,8,23.8,10.2,35.6
	c2.7,14.3,4.8,28.6,6.3,43c1.5,14.4,2.5,28.9,2.9,43.4c0.7,21.8-0.6,43.1,3.2,64.8c-4.8,10.4-9.9,20.7-15.1,30.9
	c-4.4,8.4-9.4,16.6-13.5,25.2c-0.2-9.3-1.8-18.6-3-27.8c-1.9-14.8-3.7-29.5-5.3-44.3c-1.8-17.4-2-35-3.7-52.4
	c-3.9-41.4-12.2-77.3-30.6-114.8c-4.3-8.8-8.9-17.7-14.2-26c10.3-3,23-12.4,29.6-20.8C412.7,247.1,413.1,243.4,412.8,239.8z"/>
<path class="st0" d="M404.7,262.7c2.9,0.4,6.3,4.7,8,7.1c5.2,7.2,8.7,15.9,12.2,24c23.8,55.2,31.3,137.4,22.2,196.6
	c-0.2,0.6-0.6,1-0.9,1.5l-0.8,0c-2.8-4.2,0.9-33.2,1.1-39.7c0.3-14.4-0.1-28.9-1-43.3c-0.9-14.4-2.5-28.8-4.6-43.1
	C435.4,328.2,423.8,295.4,404.7,262.7z"/>
<path class="st1" d="M673.6,673.7c7.9,0.7,16.3,3.5,23.6,6.6c6.9,3,16.7,7.3,21.7,13.1c5.2,6,10.2,23.3,13.7,31.4
	c3,7,6.6,13.8,9.4,20.9c-6.9,2.4-11.8,2.8-19,2c0.2-8,1.4-17.8-2.2-25.2c-6.9-14.1-37.3-29-52-33.8c7.2,9.9,26.3,18.8,36.7,27
	c6,4.7,9.3,10,10.1,17.7c0.9,8.9,0.3,25.3-5.9,32.5c-2.6,3-6.8,2.7-10.4,2.8c3.9-8,5.4-17.9,4.2-26.7c-8.5-8.8-36.8-21.8-49-25.3
	c10.1,8.3,32.5,22.1,44.3,27c-0.1,4.3-0.5,8.5-2.1,12.5c-1.8,4.5-5.1,14.2-9.9,16.1c-1.6,0.6-3.2,0.6-4.8,0c-0.8-2.1,0-6.2-0.2-8.7
	l-0.1-0.6c-0.1-0.1-0.1-0.3-0.2-0.4c-4.4-8-34.2-15-43.3-17.9c10.8,9.3,26.2,14.2,39.5,18.7c-1.5,4.2-2.6,8-5.8,11.3
	c-16.6,3-38.6,0.9-53.6-7.3c-12.3-6.8-18.9-17.2-22.8-30.4c-0.1,3.3,0.1,6.6,0.3,9.9c-8.8-2.3-17.4-5.7-26-8.8
	c-13.4-4.9-27.2-9.6-40.2-15.5c-7.5-3.4-14.7-7.6-22.2-11.2c10-9.6,29.3-22.4,41.9-28.5c10.6,5.1,21.4,10,32.2,14.5
	c7,3,14.3,5.7,21.1,9.1c-0.8,2.1-1.5,4.3-1.8,6.6c-0.2,1.2-0.3,2,0.5,3c1.6-0.5,4.6-6.1,5.9-7.7C621.3,690,651,676.7,673.6,673.7z"
	/>
<path class="st2" d="M266.9,495.4c10-4.1,34-2.5,44,1.7c2.8,1.2,5.1,2.7,7.5,4.4c-11.1,2-21.9,4.6-32.3,9
	c-38.8,16.2-69.2,50.3-92.7,84.1c-6.2,8.9-11.8,18.4-17.5,27.6c-14.8,24.1-28.6,48.8-41.6,73.9c-4,7.9-7.9,16-11.6,24
	c-2,4.2-3.7,8.8-6,12.9c-0.6-7.6-1-15-0.2-22.6c2.1-19.4,12.3-44,20.9-61.7c3.7-7.8,8.4-15.6,11.4-23.7
	c-15.2,17.6-30.3,47.7-36.5,70c-3.3,11.8-5.2,23.9-4.2,36.2c1.6,21.4,11.4,39.5,23.1,56.9c-8.1,3.6-19.3,7.8-28.1,8.2
	c-2.6-1.3-11.4-0.5-15-0.8c-10.9-1-20.2-4.9-27.2-13.5c-17.3-21.1-15.1-57.1-12.5-82.7C53,651.5,70.5,596,91.7,552.9
	c3.4-7,7.3-17.3,13.4-22.3c-2.8,9-6,17.8-8.4,26.9c-6,22.6-12.6,60-2.9,81.6c-3.9-26.5,7.7-73.3,18.5-98c3.9-8.9,9.1-17.9,14.7-25.9
	c-10.3,36.8-20.3,79.4-3.9,116c-1-16.2-1.4-32-1.1-48.2c1.1-0.9,2.3-2.1,3.5-2.8c3.7-0.8,24.5-18.9,29.6-22.7
	c18.5-13.7,38.4-26.8,58.7-37.8c8.5-4.7,17.2-9.1,26.1-13.2C247,503.3,262.2,499.3,266.9,495.4z"/>
<path class="st1" d="M527.1,205.7c6.3,0.1,11.7,0.8,16.9,4.8c15.3,11.6,17.8,36.7,12.2,53.8c-2.9,9-9.1,17-13.6,25.3
	c-12.4,23.1-20.1,52.2-16.6,78.4c1.4,10.2,5.1,24.5,13.9,31c3.6,2.7,7.6,3.2,12,2.4c12.4-2.4,20-14.2,26.6-23.9
	c1.8,11,5.9,21.4,10.5,31.4c-1.6,2.7-1.7,6.1-1.9,9.2c-1.2,14.8,0.8,32.7,10.9,44.4c5.3,6.1,12.6,9.2,20.5,9.7
	c15.5,1.1,25.7-8.8,36.5-18.3c3.9,6.4,7.4,11.6,13,16.6c-3.7,4.4-6.5,9.9-9.7,14.7c-8.1,12.1-16.5,24.3-21.2,38.3
	c-2.3,6.8-3.6,14-5.2,21c-0.9-9.9-2.2-30.9,1.8-39.7c3.1-6.9,6.5-11.4,8.8-19c-3.2,3.5-5.9,7.9-8.7,11.8
	c-17.8,24.2-32.4,52.2-37.4,82.1c-1.4,8.5-1.3,17.1-1.4,25.8c-22.7-24.5-26.2-45.1-37.7-74.4c-1.1,4.7-1.4,9.6-1.8,14.4
	c-1.6,19.1,0.9,32.4,5.8,50.7c-26.5-28.8-44.6-63-51.3-101.8c-1-5.4-1.7-10.8-2.3-16.3c-0.5-4.4-0.1-12.8-1.5-16.5l-0.8,0.6
	c-7.8,24.9-8.1,51-10.7,76.7c-3.8-8.7-7.8-17.2-10.8-26.2c-3.2-9.7-5.1-19.5-6.8-29.5c-6.6-38.6-3.1-66.2,7.1-103.6
	c2.6-9.5,6.2-18.7,9-28.1c-9.7,10.8-18,24-24,37.1c0-6.4-0.8-12.7-1.4-19c1.9-3.8,4.6-7.3,7.1-10.7c12.2-16.6,26.9-30.5,43.2-42.9
	c-16.6,4.3-33.1,11.8-48.7,19.2c7.5-9.8,18.8-17.7,29.2-24.1c7.5-4.7,30.5-16,34.5-21.9c0.8-1.3,1-2.1,0.7-3.6
	c-2.6-1.3-13.9,3-17,3.9c-0.6-2.1-1.4-4.3-1.3-6.4c0.1-9,13.1-11.4,18.3-16.8c5.7-6,7.2-15.2,6.8-23.1c-0.4-8.4-3.2-17.2-9.7-22.9
	c-4.5-3.9-10.2-5.6-16.1-5c-6.5,0.6-11.2,3.5-15.3,8.4c5.1-2.4,9.9-4.6,15.7-4.6c5.4,0.1,10.4,2,14,6c6.2,6.8,6.6,15.5,6,24.1
	c-0.9-3.7-1.8-7.3-4.5-10.2c-2.8-3-6.6-4.4-10.7-4.6c-0.4,0-0.8,0-1.2,0c-0.4,0-0.8,0-1.2,0c-0.4,0-0.8,0.1-1.2,0.1
	c-0.4,0-0.8,0.1-1.2,0.2c-0.4,0.1-0.8,0.1-1.1,0.2c-0.4,0.1-0.8,0.2-1.1,0.3c-0.4,0.1-0.7,0.2-1.1,0.3c-0.4,0.1-0.7,0.2-1.1,0.4
	c-0.4,0.1-0.7,0.3-1.1,0.4c-0.4,0.2-0.7,0.3-1.1,0.5c-0.3,0.2-0.7,0.4-1,0.5c-0.3,0.2-0.7,0.4-1,0.6c-0.3,0.2-0.7,0.4-1,0.7
	c-0.3,0.2-0.6,0.5-0.9,0.7c-0.3,0.2-0.6,0.5-0.9,0.7c-0.3,0.3-0.6,0.5-0.9,0.8c-4.7,4.6-8,11.3-7.9,18c0,0.7-0.1,0.4,0.4,0.9
	c1.8-2.2,2.5-5.2,3.8-7.7c2.5-5,7.2-8.8,12.6-10.3c4-1.1,9-1.4,12.7,0.8c3,1.7,4.7,4.7,5.4,8c3.4,16.2-10.1,10-17.4,21.8
	c-3.9,6.2-3.1,12-1.6,18.7c-1.9,0.5-3.9,1.2-5.9,1.4c-3.8,0.4-7.7-1.1-10.6-3.5c-7.1-5.9-9.9-16.3-10.7-25.1
	c-1.4-15,1.2-29.3,11-40.9C503.3,212.6,514,206.8,527.1,205.7z"/>
<path class="st0" d="M583.4,398.9c0.8,5.4-0.5,12.2-0.9,17.6c-1.4,18.1-1.3,40.1,9,55.8c5.1,7.8,13,12.4,22.3,12.5
	c2.9,0,6-0.5,8.9,0c-0.7,1.2-1.6,1.4-2.8,2c-0.8,0.2-1.6,0.5-2.4,0.6c-7.2,1.7-15.5,0.1-21.7-3.8c-8.6-5.4-13-14.9-15.3-24.5
	C577.4,446.3,576.1,410.7,583.4,398.9z"/>
<path class="st1" d="M792.5,792.1c6.4,2.7,13.4,4.2,20.1,5.9c10.4,2.6,20.9,5.1,31.2,7.9c25.7,7.2,51.2,15.3,77,22.3
	c20.9,5.7,42,10.2,63.1,15.1c-8.8,8.9-20.6,17.2-30.8,24.7c-52.3,38.1-110.2,66.1-170.9,88.2c-6.4-2.8-13-5.3-19.5-7.8
	c-60.9-22.8-122.1-45.5-181.6-71.9c11.9-0.1,24.2-2.5,35.8-4.7c47.6-9.1,96.4-25.9,136-54.5c4.7,4.1,8.5,9.5,13.5,13.2
	c1.1,0.8,1.7,1.2,3,1c0.1-0.1,0.2-0.3,0.3-0.4c1.9-3.8-2.4-15.2-3.6-19.6C775.4,805.8,784.2,799.3,792.5,792.1z"/>
<path class="st0" d="M821.7,867.8c1.3,0.2,2.5,0.6,3.8,1c0.4,0.2,0.8,0.3,1.2,0.5c0.4,0.2,0.8,0.4,1.2,0.7c0.4,0.2,0.7,0.5,1.1,0.8
	c0.3,0.3,0.7,0.6,1,0.9s0.6,0.6,0.9,1c0.3,0.3,0.6,0.7,0.8,1.1c0.3,0.4,0.5,0.7,0.7,1.1c0.2,0.4,0.4,0.8,0.6,1.2
	c2.2,5.2,0.9,11.7-1.3,16.7c-2.6,5.9-7.5,11.6-13.6,13.9c-8.1,3-17.5-0.1-25-3.7c-1.9-1-3.9-2.2-5.6-3.5c-2.5-1.9-5.5-4.7-5.8-8.1
	c-0.1-0.9,0.2-1,0.7-1.6c3.7-0.7,16,3.7,22.5,3.7c4,0,8-0.8,10.9-3.8c4-4.2,6-11.5,5.8-17.2c0-1.4,0-2.8,0.2-4.2L821.7,867.8z"/>
<path class="st0" d="M805.6,815.9c2.2,0.1,5.5,0.9,7.1,2.6c0.9,1,1.2,2,1.1,3.2c-0.6,6.8-13.1,15.5-18.1,19.6c9,0,17.7,2.4,26.1,5.2
	c8.5-3.9,15.1-10.9,23.4-14.8c4.8,0.9,9.6,2.5,12.8,6.4c1,1.2,1.8,2.7,1.4,4.4c-1.2,4.8-14.6,7.2-19,9.7c-0.2,0.1-0.3,0.2-0.5,0.3
	c5.6,1.2,11.3,2.5,16.9,4c10.1,2.7,29.1,10.1,38.9,8.5c1.5-0.2,3-0.8,3.7-2.3c1.4-2.7-0.2-5.8-0.8-8.5c-0.3-1.2-0.5-1.9,0.2-2.9
	c0.2,0,0.4,0.1,0.5,0.1c2.3,0.7,4.3,3.1,5.5,5.1c2.1,3.6,2.7,8.2,1.5,12.2c-1,3.4-3.4,6.1-6.5,7.8c-16.6,8.9-56.1-10.4-73.8-15.4
	l-0.8-0.2c-6.4,3.2-12.5,7.2-18.8,10.6c-14.6,7.2-31.1,15-47.4,17.3c-1.3,0.2-2,0.4-3.1-0.5c0-0.2,0.1-0.4,0.1-0.5
	c0.6-1.5,2.2-2.9,3.5-3.8c9.1-6.4,19.8-11.4,29.6-16.8c6.9-3.8,13.4-8.1,20.2-11.8c-7.5-2.1-15-3.5-22.1-7
	c-6.6,3.8-13.4,7.3-20.4,10.6c-14,6.5-29.3,11.4-44.8,12.6c-2.7,0.2-6.4,0.7-9-0.2c1.2-2.5,14.9-5.6,18.2-6.8
	c20.2-7.5,40.1-19.5,56.7-33.2C794,826.5,799.2,819.9,805.6,815.9z"/>
<path class="st1" d="M719.2,241c2.9-2.8,15.8-1.9,20.2-1.8c14.1,0.4,27.9,4.6,37.8,15.2c11.2,12,12.8,28.3,12.2,44
	c-0.5,13.1-2.9,25.6-8.1,37.7c-11.2-2.7-21.2-1.5-31.2,4.5c-4.8,2.9-11.6,8.7-12.8,14.4c-0.1,0.7-0.1,1.3,0.1,2
	c1.1,0.4,1.7,0.4,2.8,0c1.5-0.6,2.9-1.6,4.4-2c3.9-1.1,11.5,0.7,15.4,2c2.1,0.7,4.2,1.6,6.1,2.7c-8,9.6-17.7,19.9-27.9,27.1
	c-16.9-1.1-20-3.2-35.2,6.7c7.7,1.5,15.4,2.9,23.2,3.9c-8.5,15.3-27.2,26.6-43.8,31.3c-0.6,0.2-1.1,0.3-1.7,0.5
	c9.4-9.4,14.2-17.4,17.3-30.3c1.3-5.3,2.2-10.7,2.2-16.1c0-4-0.7-7.9-1.4-11.9c-3.7,15.9-9.3,43.6-24.2,52.5
	c-3.8,2.3-7.9,2.9-12.2,1.7c-4.2-1.2-7.2-4.5-9.2-8.3c-1.6-3.1-1.5-6.3-0.4-9.6c1.4-4.1,8.3-11.4,8.5-14c-2.3-0.2-6.7,2.8-8.5,4.2
	c-4.4,3.6-6.9,8.3-7.5,14c-0.5,5,1,9.6,4.2,13.4c3.6,4.3,9.1,7.3,14.7,7.8c3.9,0.3,8.9-1.8,12.3-0.2c4.9,2.3,13.7-0.6,18.5-2.5
	c11.9-4.4,20.3-11,29.2-19.9c-3.1,8.1-6.8,16.6-15.4,20.3c-5,2.1-13.3,0.8-15.5,2.1c-1.1,4.5,2.7,12.9,5.1,16.9
	c8.2,13.8,23.9,21.7,39,25.4l1.4,0.3c-22.3,3-53.5,1.2-72-12.8c-4-3-7.3-6.6-10.5-10.3c2.4-2.4,8.9-7.6,9.3-11
	c-4.2-2.2-13.1-1.3-18.1-2.4c-31.5-7-51.6-24.3-61.2-55.4c-5.3-17.4-5.2-37.7,1-54.8c0.1-0.6,0.1-1.1,0-1.6l-1.2-1.1
	c-2.3,4-4.4,7.9-5.5,12.4c-1.3,5.2-1.5,10.9-4.2,15.7c-2.8,4.9-14,19.9-19.6,20.9c-1.2,0.2-2.4,0.2-3.4-0.6
	c-3.3-2.6-4.1-11.3-4.4-15.3c-1.8-26.2,8.6-55.6,22.9-77.3c6.8-10.3,15-19.6,23.1-28.9c12.8,2.6,26.5,2.7,39.4,1.6
	c11.1-0.9,22.2-3.1,33.2-5c8.6-1.5,17.1-2.8,25.7-4.3c7.6-1.4,15.6-3.4,23.2-4c0.9-0.1,1.4,0.1,2.2,0.5L719.2,241z"/>
<path class="st0" d="M719.2,241c1.3,2.8,3.5,5.5,5.3,8.1c8,11.5,18,23.4,31.4,28.6c12.3,4.8,17.5,1.1,28.4-3.7
	c-4,4.9-8.5,7.9-14.9,8.8c-9.6,1.4-18.9-2.8-26.4-8.4c-8.4-6.3-22.6-23-24.1-33.4L719.2,241z"/>
<path class="st0" d="M709.3,257.9c2.1,1.3,15.7,21.5,19.4,25.5c11,11.8,25.7,17.9,41.9,14.4c3.3-0.7,7.5-3.5,10.5-3.4l-0.6,1.3
	c-2.9,1.9-5.8,3.4-9.1,4.5c-0.6,0.2-1.2,0.4-1.8,0.6c-0.6,0.2-1.2,0.3-1.9,0.5c-0.6,0.1-1.3,0.3-1.9,0.4c-0.6,0.1-1.3,0.2-1.9,0.3
	c-0.6,0.1-1.3,0.1-1.9,0.2c-0.6,0-1.3,0.1-1.9,0.1c-0.6,0-1.3,0-1.9,0c-0.6,0-1.3,0-1.9-0.1c-0.6,0-1.3-0.1-1.9-0.2
	c-0.6-0.1-1.3-0.2-1.9-0.3c-0.6-0.1-1.3-0.2-1.9-0.4c-0.6-0.1-1.2-0.3-1.9-0.5s-1.2-0.4-1.8-0.6c-0.6-0.2-1.2-0.4-1.8-0.6
	c-0.6-0.2-1.2-0.5-1.8-0.7c-0.6-0.3-1.2-0.5-1.7-0.8C726.6,290.5,714.5,273.3,709.3,257.9z"/>
<path class="st0" d="M643.8,332.7c2.4,0,4.9,0.2,7.1,1c0.3,0.1,0.6,0.2,0.9,0.3c0.3,0.1,0.6,0.2,0.9,0.4c0.3,0.1,0.6,0.3,0.9,0.4
	c0.3,0.1,0.6,0.3,0.8,0.5c0.3,0.2,0.5,0.3,0.8,0.5c0.3,0.2,0.5,0.4,0.8,0.6s0.5,0.4,0.7,0.6c0.2,0.2,0.5,0.4,0.7,0.6
	s0.5,0.4,0.7,0.7c0.2,0.2,0.4,0.5,0.6,0.7c0.2,0.2,0.4,0.5,0.6,0.7c0.2,0.2,0.4,0.5,0.6,0.8c0.2,0.3,0.4,0.5,0.5,0.8
	c0.2,0.3,0.3,0.5,0.5,0.8c0.2,0.3,0.3,0.6,0.4,0.8c0.1,0.3,0.3,0.6,0.4,0.9c2.4,5.6,2,11.3-0.2,16.9c-0.9,2.2-1.8,4.6-4.1,5.5
	c-1.6-1.2-3.1-13.7-4.6-17.4c-8.5-14.7-27.1-2.4-33.2-4.3c0.1-0.4,0.1-0.6,0.4-1C624.6,336.7,636.3,333.5,643.8,332.7z"/>
<path class="st0" d="M589.6,321.3l0.1,0.7c1.1,5.4,3.2,10.7,5.1,15.8c7.7,20.6,18.9,41.3,37.7,53.6c2.1,1.4,11.3,4.5,11.7,6.2
	c-3.2,2.3-9.9,2.6-13.6,2c-11.4-1.8-19.8-9.6-26.2-18.7c-1-1.4-1.9-2.8-2.8-4.2c-0.9-1.4-1.7-2.9-2.5-4.4c-0.8-1.5-1.6-3-2.3-4.5
	c-0.7-1.5-1.4-3.1-2-4.6c-0.6-1.6-1.2-3.1-1.8-4.7c-0.5-1.6-1.1-3.2-1.5-4.8c-0.5-1.6-0.9-3.2-1.2-4.9c-0.4-1.6-0.7-3.3-1-4.9
	c-0.8-5.2-1.1-10.4-1.8-15.6c0.1-0.6,0.1-1.1,0-1.6l-1.2-1.1C587.4,324,588.4,322.6,589.6,321.3z"/>
<path class="st0" d="M664.1,260.1c1.1-0.1,2.1-0.1,3.2-0.1c7.6,0.3,13.9,4.2,18.9,9.7c8.7,9.4,12.5,22.3,11.9,34.9
	c-0.3,6.4-2.7,21.5-7.9,25.7c-1.1,0.9-1.6,0.9-2.9,0.6c-1.1-1-1.6-1.7-2.3-3c-0.3-5.8-0.9-11.4-2.6-16.9c-3.8-12-11.9-22-24-26.3
	c-3.3-1.2-7.1-1-10.3-2.7c-0.9-1-1.7-2-2-3.4c-0.7-3.1,1.4-6.4,3.1-8.8C653.1,264.4,657.8,261.2,664.1,260.1z"/>
<path class="st1" d="M665,265.6c0.3,0,0.5,0,0.8,0c6.6,0.1,12.8,3.1,17.3,7.9c9.6,10.4,9.2,24.5,8.8,37.7c-1.2-3.1-2.7-6.1-4.1-9.1
	c-2.3-4.5-5.1-8.9-8.5-12.7c-7.4-8.2-16.8-12-27.7-12.5c0.9-1.6,1.8-3.2,2.8-4.7C657.1,268.3,660.2,266.5,665,265.6z"/>
<path class="st2" d="M320.8,505.7l1.4-0.2c0.7,0.2,1.1,0.4,1.6,0.9c9.1,9.6,14.1,36.4,14.6,49.6c0.5,13.1-1.1,25.9-2.5,38.8
	l-5.8,47.9c-5.6,49.5-10,99-9.3,148.8c-11.5,6.2-21.8,10.4-34.6,12.9c-1.2,0.2-2.4,0.5-3.6,0.7c-1.2,0.2-2.4,0.4-3.6,0.6
	c-1.2,0.2-2.4,0.3-3.6,0.5c-1.2,0.2-2.4,0.3-3.7,0.4c-1.2,0.1-2.4,0.2-3.7,0.3c-1.2,0.1-2.4,0.2-3.7,0.2c-1.2,0.1-2.5,0.1-3.7,0.1
	c-1.2,0-2.5,0-3.7,0c-1.2,0-2.5,0-3.7-0.1c-1.2,0-2.5-0.1-3.7-0.1c-1.2-0.1-2.5-0.1-3.7-0.2c-1.2-0.1-2.4-0.2-3.7-0.3
	c-1.2-0.1-2.4-0.3-3.7-0.4c-1.2-0.2-2.4-0.3-3.6-0.5c-1.2-0.2-2.4-0.4-3.6-0.6c-1.2-0.2-2.4-0.4-3.6-0.7c-1.2-0.2-2.4-0.5-3.6-0.8
	c-1.2-0.3-2.4-0.6-3.6-0.9c-1.2-0.3-2.4-0.6-3.6-1c-1.2-0.3-2.4-0.7-3.5-1c-1.2-0.4-2.3-0.7-3.5-1.1c-1.2-0.4-2.3-0.8-3.5-1.2
	c-1.2-0.4-2.3-0.9-3.4-1.3c-1.1-0.5-2.3-0.9-3.4-1.4c-1.1-0.5-2.3-1-3.4-1.5c-1.1-0.5-2.2-1-3.3-1.6c-1.1-0.5-2.2-1.1-3.3-1.6
	c-1.1-0.6-2.2-1.1-3.3-1.7c-1.1-0.6-2.1-1.2-3.2-1.8c-1.1-0.6-2.1-1.2-3.2-1.9c-1-0.6-2.1-1.3-3.1-2c-1-0.7-2.1-1.3-3.1-2
	c-18.6-14.6-34.1-30.3-44.6-51.9c15.9-41.2,34.1-79.4,57.7-116.7c6.7-10.6,13.4-21.2,21.2-31.1C236.4,545.5,273.3,511.5,320.8,505.7
	z"/>
<path class="st2" d="M174.7,422.1c2.7-2.9,5.1-6.7,7.6-9.9c4.8-6.3,9.8-12.6,15.2-18.4c33.6-36.2,72.6-70.1,117-92.5
	c19.8-10,41.3-17.9,62.1-25.3c24.3,40.6,36.1,86.6,41.1,133.3c2.5,23.6,3.6,47.3,6.1,70.8c2,19.1,8,45.6,5.7,64
	c-11.3-9.5-23.5-18.6-34-29c-2.9-2.9-10-13.5-13.2-14.2c-0.8,0.9-0.8,1-0.7,2.2c0.5,12.7,27.9,36.5,37.7,45
	c12,10.4,24.6,20.1,36.8,30.2c1.2,3.4,2.1,6.9,2.8,10.5c-6.8-2.8-13.8-5.4-20.8-7.8c-12-4-24.3-7-36.5-10.6
	c-6.6-1.9-13.3-4.6-19.9-6c-1.6-0.3-3.4-0.6-5,0c-0.2,0.1-0.4,0.2-0.5,0.3c-0.4,1.1-0.4,1.3,0.2,2.4c1.4,2.5,4.8,4.2,7.3,5.4
	c9.2,4.3,19,7.3,28.6,10.4c10.8,3.6,21.6,7.3,32.3,11c10.2,3.5,20.5,6.8,30.2,11.5c-47.3,9.3-99.2,46-126.1,85.8
	c-1.4,2.1-2.8,4.3-4.1,6.5c-2.2-6.6-5.4-14.1-5.8-21.1c-0.6-9.3,2-19.8,3.1-29.1l5.2-42.8c1.4-11.6,2.4-23.2,2.8-34.8
	c1.4-30.8-0.9-67.9-32.2-83.7c-2.8-1.4-5.7-2.5-8.7-3.4c-2.5-27.7-2.2-56.8,1.3-84.4c1.4-11.3,4-22.3,5.4-33.5
	c0.3-2.7,1.3-7.3-1.3-9.2c-0.7-0.5-1-0.3-1.8-0.2c-7.5,5.9-13.6,40.6-14.8,51.3c-2.1,18.1-2,36.1-1.7,54.3
	c-16-20.7-21.6-46.8-18.3-72.6c0.6-4.8,5.1-20.4,4.7-23.3l-0.5-0.2c-5,3.2-8.2,15.5-9.5,20.9c-5.1,22.7-1.8,52,10.8,71.8
	c4,6.2,8.2,11.7,14,16.3l0.2,6.7c-17.8-0.1-33.7,1.4-50.7,7.1c-24.3-14.1-42.4-26.2-60.2-48.5C182.4,433.7,179.1,427.5,174.7,422.1z
	"/>
</svg>
