<?xml version="1.0" encoding="utf-8"?>
<!-- Generator: Adobe Illustrator 24.1.2, SVG Export Plug-In . SVG Version: 6.00 Build 0)  -->
<svg version="1.1" xmlns="http://www.w3.org/2000/svg" xmlns:xlink="http://www.w3.org/1999/xlink" x="0px" y="0px"
	 viewBox="0 0 1024 1024" style="enable-background:new 0 0 1024 1024;" xml:space="preserve">
<style type="text/css">
	.st0{fill:#28233F;}
	.st1{fill:#FEFEFE;}
	.st2{fill:#6865F2;}
</style>
<g id="Layer_2">
</g>
<g id="Layer_1">
	<path class="st0" d="M543.6,80.7c8.5-1.3,18.7-0.4,27,1.5c16.2,3.8,35.1,15.3,43.9,29.7c5.6,9.2,6.7,19.6,4.2,30
		c-5.8,23.9-31.7,52.5-52,66.8c-8,5.6-16.7,9.8-25,14.9c-0.9,4-3,7.7-4.3,11.6c3.3,8.4,10,15.9,14.4,23.9
		c12.8,23,18.9,49.2,20.3,75.3c21.5-2.9,47,3.8,66.4,13.2c10.9,5.2,23.3,12.4,27.6,24.3c15.4,9.8,31.4,18.5,45.8,29.8
		c41.8,32.5,85,78.6,112.7,123.7c5.6,9.2,11.6,18.5,14.4,28.9c-1,3.6-2.4,7.1-3.7,10.6c3.6,3,7.1,5.8,9.4,10
		c3,5.5,2.5,11.6,0.8,17.4c6.1,6.9,11.7,14.3,16.7,22c31.6,49.3,38.7,116.5,26.6,172.9c7.8,4.6,14.2,9.4,20.6,15.8
		c20.7,3.4,59.9,14.5,75.2,28.7c4.7,4.4,8,10,8.1,16.6c0.1,6-2.5,11.2-6.6,15.5c-35.4,36.5-202.2,40.8-253.9,41.6
		c-32.6,0.5-65.2-0.3-97.8,0.3c-10.9,20.8-35.1,19.9-55.5,18.7c-4.5-0.2-9.4-1.4-13.8-0.9c-5.5,0.6-22.5,8.6-29.1,11.1
		c-7.4,2.8-20.1,8.8-27.7,5.1c-2.5-1.2-3.4-3.1-4.4-5.6c-6.4,3-13.5,5.2-20.6,4.3c-4-0.5-7.3-1.9-9.8-5.1c-3.7-0.2-7.2-0.3-10.5-2.3
		c-2.8-1.6-4.8-4.2-5.5-7.4c-2.2-9,2.9-18.3,7.4-25.7c-0.7-7,1-13,4.4-19c8.4-14.8,19-22.8,35-27.3c-2.6-3.5-5.3-7.1-7.5-10.9
		c-5.5-9.2-8.1-19.3-5.2-29.8c4.9-18.4,25.8-32,41.4-40.9c-7.4-6.4-16.1-11.5-22.9-18.6c0.3-2.4,0.3-4.9,0.5-7.4
		c-3.9-1.9-8.1-3.4-12.1-5.1c-3.3,7.7-5.6,16-8.7,23.9c-10.2,25.9-28.9,72.9-47.4,92.8c-3.4,3.7-7.5,6.8-12.1,8.7
		c-9.9,4.2-21.6,1.9-31.2-2c-28.9-11.8-59.1-51.3-71.1-79.7c-13.5,5.2-26.3,11.4-39.1,18.2c-1.3,3.8-2.5,7.4-4.5,10.9
		c-6.2,10.8-15.7,14.8-27.1,17.9l6.6,12.7c9.2-1.3,18.3-2.6,27.4-4.4c19.8,16.8,74.9,34.9,101.2,41.6c4.8,1.2,9.7,2.3,14.6,3.2
		c4.5,0.8,9.8,1,13.9,2.8c1.4,0.6,2.7,1.5,3.2,3.1c0.4,1.6,0,3-1,4.4c-7.6,4.9-154.2,31.7-172.9,35.5l-53,10.9
		c-10.4,2.2-21,5-31.6,5.9c-4.8-3.8-9.1-8.1-14-11.9c-16.7-12.7-35.1-21.2-54.5-28.9c-16-5.9-32.3-11.1-48.8-15.5
		c-4-1.1-16-3.2-18.7-5.5c-0.5-1.2-0.4-1.8-0.1-3.1c5.6-3.5,144.8-21.4,161.7-23.7c14.2-2,28.4-4.4,42.6-6.4
		c-2.3-4.4-4.7-8.7-7.4-12.9c-8.9,2.6-49.1,12.9-56.6,8.4c-5.2-3.1-6.1-11.2-7.2-16.5c-3-0.8-5.9-1.4-8.1-3.8
		c-4.1-4.5-3.2-12-3.1-17.7c-5.5-1.2-10.6-2.7-15.2-6c-4.8-10.7-2.7-22.5,1.1-33.1c-0.9-0.9-1.8-2-2.5-3.1
		c-3.3-5.6-1.5-14.2,0.1-20.1c2.9-10.8,9.4-22.8,19.3-28.5c-5-6.9-9-15.1-13.3-22.5c-12.8-21.9-24.8-44.3-37.3-66.4
		c-6.1-10.8-12.6-21.3-18.8-32c-4.9-8.5-9.5-17.2-14.3-25.8c-5-9-11-18.2-14.4-28c4.1-5.1,6.6-10.4,12.3-14.1
		c3.7-2.4,7.7-3.5,12-2.5c3.2,0.8,5.6,4.3,7.5,6.9c5.2,7.3,9.6,15.4,14.1,23.1c6.2,10.5,12.4,21.1,18.5,31.7l68.1,119.2
		c0.1-1.4,0.3-2.9,0.9-4.2c1-2.2,3.2-3.6,5.4-4.5c11.6-4.4,36,0.9,47,6c1.2,0.5,2.3,1.1,3.4,1.7c1.1,0.6,2.2,1.2,3.3,1.9
		c1.1,0.7,2.2,1.3,3.2,2.1c1.1,0.7,2.1,1.4,3.1,2.2c1,0.8,2,1.5,3,2.4c1,0.8,2,1.6,2.9,2.5c0.9,0.9,1.9,1.7,2.8,2.6s1.8,1.8,2.6,2.8
		c0.9,0.9,1.7,1.9,2.5,2.9c0.8,1,1.6,2,2.4,3c0.8,1,1.5,2.1,2.2,3.1c0.7,1.1,1.4,2.1,2,3.2c0.7,1.1,1.3,2.2,1.9,3.3
		c0.6,1.1,1.2,2.3,1.7,3.4c0.5,1.2,1.1,2.3,1.5,3.5c0.5,1.2,0.9,2.4,1.4,3.6c12.9-6,26-14.6,37.4-23.1c0.8-2.2,1.6-4.3,3.2-6.1
		c4.5-5.2,10.5-9.3,15.6-13.9c10.3-9.4,20.2-19.3,29.7-29.7c19.6-21.7,37.6-46,49.5-72.9c2.3-5.1,4.7-10.4,5.9-15.9
		c1-4.7,0.9-9.1,0.6-13.9c-4.3,3.6-8.6,7.2-12.7,11c-2.2,9.9-4.5,19.5-8.4,28.9c-2.1,5-9.8,21.8-15,23.5c-0.5,0.2-0.6,0.2-0.9-0.1
		c-3.1-2.4-3.1-15.6-3.7-19.7c-0.7,2.2-1.6,4.3-2.5,6.4c-0.9,2.1-1.9,4.2-3,6.2c-1.1,2-2.3,4-3.5,5.9c-1.3,1.9-2.6,3.8-4,5.6
		c-4.4,5.7-20.2,23.7-27.7,24.3c-1.1,0.1-1.3-0.2-2.1-0.8c0.8-7,4.7-13.9,6-20.9l0.2-1c-6.7,8.9-13.5,15.9-23.2,21.4
		c-2.4,1.4-5.1,3.1-8,3.3c-1.3,0.1-1.7-0.1-2.6-1c-0.2-2.4,1.2-5.6,1.9-7.9c-0.5,0.6-0.9,1.1-1.4,1.6c-6.7,7.2-20,11.2-29.5,11.4
		c-1.9,0.1-3.5-0.1-5-1.5c-0.3-0.9-0.7-1.3-0.2-2.3c1.3-2.8,5.5-6.8,7.5-9.7c5.8-8.3,8.4-22.9,9.3-32.8c2-22.5-5-56.1-19.8-73.9
		l-0.3,2.4c-0.9,7.1-8.1,27.7-14.1,31.3c-1.2,0.7-1.4,0.7-2.7,0.4c-0.6-0.6-1.1-1-1.4-1.8c-1.2-3.5-2.2-19.6-3.4-25.4
		c-1.9,4.4-3.7,9.2-7.4,12.4c-1,0.9-1.5,1.1-2.8,1c-0.3-0.4-0.7-0.7-0.8-1.1c-0.5-1.6,3.9-29.8,4.5-34.2
		c-4.8,4.4-10.6,8.5-16.4,11.4c-9.8,5-21.9,6.5-32.4,3c-6.3-2.1-12-6.3-14.9-12.5c-2.5-5.4-2.3-11.7-0.3-17.3
		c4.7-12.7,15.7-12.2,26.3-17.2c-2.8-4-6.2-7.5-9.1-11.5c-3.3-4.8-6-10.2-9.8-14.6c-3.5,2.3-10.5,9.6-14.6,9.5l-0.4-0.9
		c1.3-6.5,5.1-11.8,8.9-17.1c-11.2-18.8-16-39.4-19.6-60.7c-8.4,10.4-11.7,23.1-16.7,35.2c-1.2,0.4-1.7,0.3-2.9-0.1
		c-0.6-0.5-1-1-1.3-1.6c-2.9-6.6,1.4-21.5,3.7-28c-3.7,1.6-10.4,6.8-14.4,6.4c-1.4-0.1-1.5-0.4-2.2-1.4c0.2-2.5,1-5,2-7.3
		c2.5-5.8,6.4-11.1,9.4-16.7c2.3-4.3,3.9-9.8,6.8-13.6c2.7-3.6,12.5-4.9,16.9-5.7c0.1-1.4,0.1-2.8,0.2-4.2
		c2.5-50.5,27.8-98,65.1-131.6c1.7-1.5,3.4-3,5.1-4.4c1.7-1.5,3.4-2.9,5.2-4.3c1.7-1.4,3.5-2.8,5.3-4.2c1.8-1.4,3.6-2.7,5.4-4
		c1.8-1.3,3.6-2.6,5.5-3.9c1.8-1.3,3.7-2.5,5.6-3.8c1.9-1.2,3.8-2.4,5.7-3.6c1.9-1.2,3.8-2.3,5.8-3.5c1.9-1.1,3.9-2.2,5.8-3.3
		c2-1.1,3.9-2.2,5.9-3.2c2-1,4-2.1,6-3s4-2,6.1-2.9c2-0.9,4.1-1.9,6.1-2.7c2.1-0.9,4.1-1.8,6.2-2.6c2.1-0.8,4.2-1.7,6.3-2.4
		c2.1-0.8,4.2-1.6,6.3-2.3c2.1-0.7,4.2-1.4,6.4-2.1c2.1-0.7,4.3-1.3,6.4-2c2.2-0.6,4.3-1.2,6.5-1.8c2.2-0.6,4.3-1.1,6.5-1.7
		c2.2-0.5,4.4-1,6.6-1.5c2.2-0.5,4.4-0.9,6.6-1.3c2.2-0.4,4.4-0.8,6.6-1.2c2.2-0.4,4.4-0.7,6.7-1c2.2-0.3,4.4-0.6,6.7-0.8
		c2.2-0.3,4.5-0.5,6.7-0.7c2.2-0.2,4.5-0.4,6.7-0.5c2.2-0.1,4.5-0.3,6.7-0.3c2.2-0.1,4.5-0.2,6.7-0.2c2.2,0,4.5,0,6.7,0
		c2.2,0,4.5,0.1,6.7,0.1c2.2,0.1,4.5,0.2,6.7,0.3c0.5-2.4,1.1-4.8,2.3-6.9c2.1-3.9,5.1-5.5,9.2-6.7c4.6-9.1,10.6-17.6,17-25.5
		C479.1,105.3,509.9,84.2,543.6,80.7z"/>
	<path class="st1" d="M363.3,517c0.2,0.2,0.5,0.8,0.6,1.1c0,2.5,0.4,6-0.7,8.3l-0.7,0l-1.6-2l-3.8-4.1L363.3,517z"/>
	<path class="st1" d="M440.6,414.8c3.3,0,7.4-0.5,10,1.8c1.3,2.6,0.8,5,0.5,7.8l-1.3,0.2C445.7,423.4,442.8,418.1,440.6,414.8z"/>
	<path class="st1" d="M446.9,406.1l1.1-0.1c1.1,1.8,1.4,4.3,1.8,6.4c-3.7,0.1-7.3,0-11-0.2l-3.7-5.8
		C439.3,407,442.8,407.2,446.9,406.1z"/>
	<path class="st1" d="M201.6,759.4l7.2-2.8c4,8,8.5,15.9,11.9,24.1c-3.2-1.1-7.5-9-9.9-11.9c-1.1-3.7-2.3-5.7-5.8-7.7
		C203.9,760.6,202.7,760,201.6,759.4z"/>
	<path class="st1" d="M101.3,574.9c2.1,0.7,4,4.5,5.1,6.3c-5.1,1-8.5,2.5-12.5,5.9c-0.5,0.6-0.2,0.3-1.2,0.7c-1.4-0.8-2-2.5-2.7-3.9
		C93.8,580.9,97.4,577.8,101.3,574.9z"/>
	<path class="st1" d="M443.8,396.7l1.2,0c1.4,1.9,2,4.5,2.8,6.8c-4.9,0.3-9.7,0.6-14.6,0.3c-2-1.7-3.4-4.1-4.9-6.2
		C433.6,397.7,438.6,397.6,443.8,396.7z"/>
	<path class="st1" d="M440.5,386.7l0.4,0c1.6,1.5,2.4,4.9,3.2,6.9c-5.3,1.2-12.2,1.6-17.4,0.4c-1.9-1.9-3.4-4-5-6.1
		C428,388.1,434.2,387.5,440.5,386.7z"/>
	<path class="st1" d="M437.9,376.2c1.5,1.7,2,5.4,2.7,7.6c-6.8,0.5-13.8,2-20.6,0.8c-1.6-1.9-2.9-4-4.3-6.1
		C423.3,378.6,430.5,377.8,437.9,376.2z"/>
	<path class="st2" d="M77,531.9c0.3,0,0.6,0,0.9,0c2.5,0.5,4.4,5.8,5.4,7.9c-4.4,2.4-8.5,6.3-12.4,8.4c-2.5-2.2-4.7-4.9-7-7.4
		C67.6,537.4,72.6,534.5,77,531.9z"/>
	<path class="st1" d="M253.2,845.4c0.2,0.1,0.4,0.1,0.6,0.2c2.2,1.3,9,23.1,10,26.7c-1.5-1.3-2.9-2.7-4.3-4
		c-5.8-5.7-10.6-11.9-15.2-18.6C247.2,848,250,846.6,253.2,845.4z"/>
	<path class="st1" d="M221.4,828c0.7,1,1,1.7,1.3,2.9c-3.2,2.7-12.1,3.4-16.5,4.2c-7.1,1.4-26.7,5.8-32.4,1.9c-1-1.9-1.4-4-2-6.1
		c11.6,1.6,33.9,4.1,44.9-0.1C218.4,830.2,219.9,829,221.4,828z"/>
	<path class="st1" d="M563.2,188l0.5,0.1l-0.1,0.6c-6.4,5.9-17.7,14.2-25.7,17.2c-1.1-0.6-1.2-1.4-1.7-2.5c-1.4-3.1-3.3-6-4.9-9
		C542.4,194.6,552.8,191.8,563.2,188z"/>
	<path class="st2" d="M761.6,803.3c1.5,3.8,2.1,8.4,3,12.4c1.3,5.4,2.7,10.8,4.2,16.2c-3.4,0.2-6.8,0.4-10.2,0.7
		c-2.1,0.2-4.3,0.3-6.4,0.5C756.5,823.7,759.7,813.4,761.6,803.3z"/>
	<path class="st1" d="M163.3,383.5l1.2,0.1c2,2.4,1.3,9.9,1.4,13.1c-5,3.4-10,9-16,10c-1.2-0.1-2.2-0.3-3.4-0.7
		c-0.2-0.8,8.9-17.6,10.1-20.1L163.3,383.5z"/>
	<path class="st1" d="M405.4,364.3c10.4,1.8,20.4,2.6,31,2c0.5,2,1.6,4.9,1,7l-1,0.4c-7.5,1.3-14.9,1.9-22.5,2.2
		C410.9,372.2,408.2,368.2,405.4,364.3z"/>
	<path class="st1" d="M763.4,638c1.8,0,3.5,0.1,5.2,0.7c1.9,0.7,3.5,1.9,4.3,3.8c0.9,2.1,0.7,4.5-0.2,6.6c-1.7,4.1-4.5,5.9-8.5,7.4
		c-1.4,0-2.5-0.2-3.9-0.8c-2.5-1.1-4.7-2.9-5.7-5.5c-0.1-0.3-0.2-0.5-0.3-0.8c-0.1-0.3-0.1-0.6-0.2-0.8c0-0.3-0.1-0.6-0.1-0.9
		c0-0.3,0-0.6,0-0.9c0-0.3,0.1-0.6,0.1-0.9c0-0.3,0.1-0.6,0.2-0.8c0.1-0.3,0.2-0.6,0.3-0.8c0.1-0.3,0.2-0.5,0.4-0.8
		C756.8,640.1,760,639,763.4,638z"/>
	<path class="st2" d="M784,672.9c2.3,2.5,4.3,5.9,6.1,8.8c7.8,12.4,13.8,29,10.5,43.7c-0.9,0.6-0.4,0.4-1.6,0.3
		C790.1,718.4,786,684.6,784,672.9z"/>
	<path class="st1" d="M86.4,546.9l0.9,0c3.3,3.3,9,15.1,11.5,19.9c-4.7,2.5-8.5,6.3-12.4,9.9c-5.1-6.1-9.5-14.8-12.8-22
		C77.7,552,82,549.2,86.4,546.9z"/>
	<path class="st1" d="M722,660.5l0.8,0.2c-0.7,3.1-7.2,10.9-9.2,14.7c-11.7,6.2-24.1,11.1-36.3,16.3l-1.2-11.8
		C691.9,674.9,707,667.5,722,660.5z"/>
	<path class="st1" d="M107.9,587.9c0.9-0.1,1.7-0.5,2.4,0.2c3.2,2.8,29.6,51.2,34,59c11.2,19.6,23,39,33.8,58.9
		c1.8,3.4,4.2,7.3,4.9,11.1c-0.3,1.1-0.7,1.9-1.2,2.9c-12.8-24.8-27.3-48.6-41.3-72.7c-6.3-10.9-12.1-22.1-18.3-33.1
		C119,608.5,109,592.7,107.9,587.9z"/>
	<path class="st1" d="M224.2,738.4c0.8,1,0.9,14.2,1.8,17.3c2.4,8.2,8.6,11.9,15.6,15.8c1.9,6.8,4.8,21.3,2.6,27.9
		c-0.3,0.8-0.5,0.7-1.2,1.1l-1.2-1.6c-8.9-15.3-18.2-31-25-47.4C220,747.2,222.7,743.5,224.2,738.4z"/>
	<path class="st1" d="M160.9,809.7c11.5,3.1,28.7,8.8,40.4,6.7c4.2-0.8,7-2.5,9.5-6c1.7,3.1,3,6.1,4,9.5c0,1.1-0.1,2-0.5,3
		c-1.3,1.2-2.4,1.7-4.1,2.1c-9.6,2.3-39-0.6-47.8-5.8C160.3,816.6,160.8,812.8,160.9,809.7z"/>
	<path class="st2" d="M745.3,680.4l0.4,0.4c0.3,5.1-0.6,10.5-1.2,15.5c-1.8,15.6-3.3,34.7-11.1,48.6c-1.3,2.3-2,3.5-4.6,4.2
		c-0.2-0.6-0.5-1.1-0.6-1.7c-3.9-12.9,3.8-37.5,8.8-49.8C739.3,691.8,742.3,686.1,745.3,680.4z"/>
	<path class="st1" d="M434.4,344.6c0.9-0.2,1-0.3,2,0c-0.7,6-1.1,12-0.9,18.1c-10.7,0.9-22.1-0.7-32.9-1.2l-3.5-4.2l-7.5-8.8
		C406.2,350.3,420.3,347.8,434.4,344.6z"/>
	<path class="st1" d="M548.7,304.4l0.4,0.4c1.3,4.5,1.7,9.3,2.2,14c2.9,27.3-2.2,57-14.3,81.6c-0.4,0.8-0.4,1-1.2,1.4
		c0.9-6.6,0.8-13.4,0.7-20c0-2.7-0.5-5.9-0.1-8.6c0.5-3.5,4.7-13.4,6-18.3C546.7,338.6,548.4,321.3,548.7,304.4z"/>
	<path class="st1" d="M757.7,760.4c2.4,16.7-9.3,57.1-15.6,73.5c-3.4,8.8-7.7,18-12.7,26c-1.4-0.8-2.8-1.7-4.2-2.5l-4.1-3.3
		c3.4-5.9,7.2-11.4,10.3-17.5c8.5-16.7,15.4-35.3,20.5-53.3C754.2,775.7,755.7,768,757.7,760.4z"/>
	<path class="st1" d="M533.6,266.2c0.6,0.6,1,1.1,1.4,1.8c4.5,7.9,8.7,16.7,10.5,25.6c2.4,12.3-1,36.4-3.6,49.1
		c-1.3,6.4-3.2,12.8-5,19.1l-0.7,2.1l0.1-1.5l-0.3,0.9c-1.4-8.3-3.3-16.2-5.7-24.3C537.1,315.2,539.4,290.6,533.6,266.2z"/>
	<path class="st0" d="M352,524c3.8,3.1,6.7,7.7,9.5,11.7c-5,5.8-11.7,9.8-17.8,14.3c-4,2.9-7.8,6-11.7,8.9l-0.3,0.8l-0.8,0.1
		c-0.9-2-1.9-3.8-2.9-5.7c-4-6.2-9.3-11-15.4-15C326.3,535.6,339.3,530.1,352,524z"/>
	<path class="st2" d="M210.8,768.8c2.4,3,6.7,10.9,9.9,11.9c2.7,3.2,4.8,8.3,6.8,12.1c8.1,14.5,15.8,29,23.3,43.9
		c-4.9,0.5-7.6,1.8-11.7,4.5c-3-6.5-6.9-12.7-10.3-19c-4-7.4-7.6-14.9-11.8-22.2c0.1-3.2,0.5-6.9-0.6-9.9c-1.5-4-4.8-5.1-8.4-6.7
		C209.9,778.5,210.5,774.1,210.8,768.8z"/>
	<path class="st1" d="M594.9,154.1l0.1,0.1l0.1,0.6c-4.6,7.1-9.6,14.6-16,20.2c-11.3,9.9-36.7,16.1-51.6,15l-3.8-4l-6.5-6.4
		C545.4,178.3,570.9,168.1,594.9,154.1z"/>
	<path class="st1" d="M453.5,313.1c0.4,1-1.5,2.1-2.3,2.9c-6.7,6.5-10.2,15.7-13.2,24.3c-15.9,3.9-32.4,5.5-48.7,5.8l-4-3.7
		c-1.6-1.4-3-3.1-4.5-4.6C406.8,333.5,429.9,324.1,453.5,313.1z"/>
	<path class="st1" d="M450.2,165.6c12.1-1.3,23.6,2.1,34.4,7.3c14.5,6.9,29.8,18.6,37.6,33c2.8,5.2,4.6,10.8,6.5,16.4l-5-6.7
		c-23.1-24.7-52.3-38.5-85.1-44.9C442.3,167.7,445.7,166.4,450.2,165.6z"/>
	<path class="st1" d="M830.5,574.4c0.5,0.5,0.8,1.1,1.1,1.8c2.1,4.5,4.2,11,2.3,15.8c-5.5,13.7-37.7,39-50.9,44.9
		c-1.5-0.1-2-0.9-3.1-1.9c-1.9-1.6-4.1-2.8-6.3-4.1C795.7,619.2,816.9,595,830.5,574.4z"/>
	<path class="st1" d="M515.8,238.3c3.7,3.4,6.9,8.9,9.6,13.1c1.9,3.1,3.7,6.1,4.7,9.6c1.5,4.9,1.8,10.4,2.2,15.5
		c1.5,19.2,0.2,37.4-4.1,56.2l-0.5,0c-3.8-8.4-7.6-15.6-13.7-22.6c6.5-16.2,8-36.2,5.6-53.4C518.7,250.4,517.1,244.4,515.8,238.3z"
		/>
	<path class="st1" d="M539.6,91.7c3.3-0.4,6.9-0.2,10.3-0.1c-6.9,1.7-13.5,4.9-19.8,8.3c-25.5,13.6-45.3,33.5-62.8,56.2
		c-1.9-0.4-3.8-0.5-5.7-0.7c-3.1-0.4-6.5-0.1-9.6-0.1c1.8-2.9,3.9-5.8,6-8.6c5.8-7.8,12-15.4,19-22.1
		C493.2,109.4,517.8,94.9,539.6,91.7z"/>
	<path class="st1" d="M769.6,731.3c2.7,2.8,6.1,41.2,7.4,48.7c4.2,24.5,11.9,47.5,24.9,68.8c-2,1.7-4.2,3.2-6.3,4.7l-5.8,4.3
		c-15-21.5-22.6-63.1-22.3-89.3C767.5,756,769.5,743.7,769.6,731.3z"/>
	<path class="st1" d="M144.5,772.6c12.2,5.1,20.6,10.4,34.2,14.1c2.9,0.8,5.9,1.6,8.9,2c4.9,0.8,14.6,0,18.5,3
		c1,1.6,1.3,2.8,1.3,4.6c0,3.9-1.2,8.4-4,11.2c-6.4,2.3-15.3-0.1-21.7-1.4c-7.2-1.5-36.2-7.6-39.3-13
		C139.4,788.1,142.8,777.7,144.5,772.6z"/>
	<path class="st1" d="M500.8,222.7c3.6,1.7,10.2,8.9,11.9,12.6c1.8,3.7,2.1,8.7,2.5,12.7c2.4,19.4,2.2,40.7-4.6,59.2
		c-5.6-3.9-10.7-6.5-17.5-8c-7.3-1.1-13.4,0.2-20.4,2c5.3-4.3,10.3-8.8,14.6-14.2c10.6-13.2,15.6-31.1,15.1-47.9
		C502.3,233.5,501.4,228.2,500.8,222.7z"/>
	<path class="st1" d="M157.4,725c5.9,0.1,11.2,2.3,16.2,5.2c-3.8,5-8.7,8.6-11.7,14.2c8.1,15.7,27.4,16.3,40.8,24.9
		c-0.8,5.4-2.1,8.6-5.8,12.7c-1.9,0-3.8-0.3-5.7-0.7c-8.1-1.8-45.2-15.3-48.9-22.9c-0.8-1.7-0.4-3.6,0-5.4
		C144.1,744.8,149.9,729.6,157.4,725z"/>
	<path class="st1" d="M453.4,195.6c2.9,0.9,5.6,2,8.3,3.2c-15.5,34.7-34.5,62.8-62.4,88.8c-8.4,7.8-17,15.3-26.5,21.8
		c-6.1,4.2-12.6,9.1-19.4,12c-3-0.8-6-1.7-9.1-2.1c7.4-5.2,14.9-10.3,22-16c28.9-23.1,56.3-52.6,75.2-84.5
		C446,211.3,449.6,203.5,453.4,195.6z"/>
	<path class="st1" d="M780.4,647.4c0.1,0.1,0.3,0.2,0.4,0.3c19.2,14.3,34.8,37.1,38.5,61c1.7,10.8,1,24.4-5.9,33.4
		c-2.9,3.8-7,6.3-11.7,6.8c-5.3,0.7-10.6-0.8-14.7-4.2c-13.8-11.5-15-45.4-16.8-62.2c-0.4-4.8-1.6-9.5-2.1-14.3
		c-0.3-3,1.5-1.7,3.3-2.7c0.6-0.3,1.5-1.8,2-2.4c1.6,1.8,4.6,30,5.8,35.6c1.8,9,4.2,19.3,9.3,27c2.4,3.6,5.9,7.3,10.3,8.1
		c0.3,0,0.5,0.1,0.8,0.1c0.3,0,0.6,0,0.8,0c0.3,0,0.6,0,0.8-0.1s0.5-0.1,0.8-0.1c0.3-0.1,0.5-0.1,0.8-0.2c0.3-0.1,0.5-0.2,0.8-0.3
		c0.3-0.1,0.5-0.2,0.7-0.4s0.5-0.3,0.7-0.5c4-2.9,5.5-8.5,6.2-13.2c2.6-19.4-7.2-39.7-19.2-54.3c-3.4-4.1-7.8-7.6-10.9-11.9
		c-1.2-1.7-0.9-3.1-0.6-5.1L780.4,647.4z"/>
	<path class="st2" d="M563.3,791.9c2.7,0.6,6.1,4.3,8.5,5.8c3,20,7,39.1,12.5,58.5c-6.4-0.9-12.7-1.2-19.2-1.3
		c-2.3-0.2-4.5-0.5-6.8-0.8c-1.5-1.2-2.8-2.6-4.1-4.1c-6.7-8.1-11.9-18-10.7-28.8C544.9,808.6,554,799.5,563.3,791.9z"/>
	<path class="st2" d="M95.7,593.1c3.6-1.7,9.2-2.8,12.1-5.2c1.1,4.8,11.2,20.7,14.3,26.3c6.1,11,12,22.2,18.3,33.1
		c14,24.1,28.5,47.9,41.3,72.7c-1.4,2.4-3.1,4.6-4.7,6.8c-2.8-2.5-5.6-4.4-8.8-6.3c-6.5-12-13.7-23.6-20.5-35.5
		c-9.2-16.1-18.1-32.5-27.4-48.6C111.9,622,103.4,607.9,95.7,593.1z"/>
	<path class="st1" d="M544.8,778.5c4.3,2.3,8.4,5.6,12.3,8.4c-2.6,1.7-5.1,3.5-7.4,5.5c-8.8,7.7-15.6,19-16.3,30.8
		c-0.7,11.4,4.8,21.8,12.1,30.2c-5.6-0.5-11.1-1-16.7-1.6l-8.3-1c-5.4-5.1-10.4-10.3-13.9-16.9c-3.4-6.4-4.9-13.2-2.5-20.3
		C509.1,798.1,531.1,785.6,544.8,778.5z"/>
	<path class="st1" d="M558.4,93.2c10.1,0.2,20,6.2,27.7,12.3c-23.2,6.7-45.8,17.3-66.2,30.2c-8.8,5.6-17.2,11.8-25.8,17.8
		c-3.1,2.2-6,4.4-8.6,7.3l-13.6-4.2c5.7-6.8,10.8-14,17-20.5c5.9-6.1,12.3-12.3,19.1-17.4C520.6,109.1,543,96.1,558.4,93.2z"/>
	<path class="st1" d="M746.4,650.5c1.3,1.9,2.4,4,3.6,5.9c-4.2,5.5-8.2,11.2-11.6,17.2c-11.3,19.6-25.2,52.7-19,75
		c0.9,3.2,2.2,6.5,5.3,8.1c0.3,0.2,0.6,0.3,0.9,0.4c0.3,0.1,0.6,0.2,0.9,0.3c0.3,0.1,0.6,0.2,1,0.2c0.3,0.1,0.6,0.1,1,0.1
		c0.3,0,0.7,0,1,0c0.3,0,0.7,0,1-0.1c0.3,0,0.6-0.1,1-0.2c0.3-0.1,0.6-0.2,0.9-0.3c6.1-2.4,9.8-9.2,12.1-15
		c6.6-16.2,8.4-34.4,9.3-51.7c0.5-10.1-0.5-20,3.4-29.5c1.3,7.1,2,14.2,2.4,21.4c0.1,7.8,0.2,15.6-0.3,23.3
		c-1,16.2-7.1,50.1-20.1,61.1c-3.6,3.1-8.1,4.6-12.9,4c-5.3-0.7-9.8-3.9-13-8.1c-9-12-8-30-5.9-43.9
		C711.3,693.2,725.2,666.1,746.4,650.5z"/>
	<path class="st1" d="M482.6,209.2c5.4,2.4,12.1,7.1,16.2,11.3c3.7,18.8-0.6,40.3-10,56.8c-6.2,10.7-15.8,19.8-26.1,26.5
		c-6.3,4.2-13.2,7.1-20.1,10.2c-20.1,9-40,15.5-61.1,21.3c-0.2,0.1-0.5,0.1-0.7,0.2c-3.8,0.9-12-6.3-15.2-8.4
		c21.4-2.6,54.2-15.9,72-28.2c8.9-6.2,17.1-13.9,24-22.3C477.5,257.1,485.2,234.5,482.6,209.2z"/>
	<path class="st1" d="M521.4,426.3c1.1,1,1.8,2.4,2.6,3.7c-19.4,46.7-34.9,95.5-35.5,146.5c-6.4-2.7-12.2-6.1-18.1-9.8
		c-3.5-2.3-6.9-4.7-10-7.5c4.6-2,9.2-3.7,12.9-7.1c2.8-21.1,4-42,4.4-63.3c0.3-15.6,0.5-30.5-2-46c4.7,1.1,9.4,1.9,14.3,1.5
		C502.9,443.2,513.3,436.1,521.4,426.3z"/>
	<path class="st1" d="M462.6,199.1c6.4,2.6,12.6,5.3,18.5,8.8c0.4,16.8-2.7,32.6-10.4,47.6c-20.2,39.2-58.5,54.1-98,66.7
		c-3.5,1-7.1,1.7-10.6,2.6c-2.1-0.9-4.3-1.6-6.5-2.4c5.9-3.5,12.2-6.4,18.2-9.8c7-3.9,13.1-9,19.3-14.1
		c25.2-20.7,50.5-51.4,63.5-81.5C459.2,211.1,460.9,205.2,462.6,199.1z"/>
	<path class="st1" d="M588.8,109c1.3,0,1.7,0.3,2.7,1.2c6.6,5.6,11.4,11.8,12,20.8c0.3,4.9-0.6,10.9-4.1,14.6
		c-3,3.2-8.3,5.4-12.1,7.5c-22.6,12.4-48.7,22-74.7,22.6l-4.7-3.2c-6-4.2-12.2-7.7-18.9-10.7C522.8,139,549.7,121.8,588.8,109z"/>
	<path class="st1" d="M443.9,557.5c1.9,2.9,3.7,22.8,4.7,27.6c8.2,41.5,28.7,87.7,64.7,112.1c-0.8,10.6-1.7,21.2-2.7,31.8
		c-2.4-1.3-4.7-2.9-6.9-4.3c-3.1-2.3-6.2-4.6-9.3-6.9c-54.2-41.2-55.5-87.8-64-149.4C435.1,565.2,439.6,561.3,443.9,557.5z"/>
	<path class="st1" d="M352.1,707.3c6.5,1.2,12.4,3.3,18.3,6.4c31.5,16.7,58.7,42.7,72.6,76.1c3.7,9,5.7,18.1,8.6,27.3l0.2,0.6
		c-5.4,10.4-12.5,27.1-22.8,33.2c-6.5,3.9-13.8,4.4-21,2.4c-26.9-7.4-54.7-42.5-68.4-66.3l-3.7-7l5.4-2.3c1,2.4,2,4.8,3.3,7.1
		c12.2,22.6,37.9,53.7,62.9,61.1c7.3,2.2,15.4,2.6,22.3-1.3c2.1-1.2,3.9-2.8,4.4-5.2c2.6-11-14.7-47.4-20.7-57.5
		c-16-26.9-43.9-55.4-75-63.3C343.3,715.2,347.7,711.2,352.1,707.3z"/>
	<path class="st1" d="M524.6,711.2c3.4,2.2,6.4,5.6,9.6,8.2c5.1,4.2,10.3,8.1,15.7,11.7c38.8,26.3,88.7,47.1,136.3,45.9
		c2.1,6.2,4.2,12.3,6.9,18.3c1.6,3.5,4.8,7.8,5.6,11.4c-52-1.6-101.9-14.4-146.7-41.4c-10.1-6.1-19.9-12.3-28.7-20.1
		C523.5,733.8,523.4,722.5,524.6,711.2z"/>
	<path class="st1" d="M198.2,705.4c11.5-0.4,25.5,0.5,36.3,4.6c22.3,8.5,34.6,25.6,44,46.6c12.7-2.7,48.7-20.7,57.6-30.5
		c13.1,6.8,26.5,16.1,35.3,28.2c-11,3.9-21.8,8.6-32.6,13c-18,7.3-36.1,14.6-53.2,23.8c0.1-3.6,0-7.3-0.5-10.9
		c-0.4-2.4-1.4-6.5-3.8-7.8c-1.5-0.8-2.5-0.4-4.1-0.1c3.9,11.3,4.2,18.8-0.6,29.9c-4.4,10.3-12.5,15.3-22.6,19.3l-8.2-15.9
		c1.3-1.4,2.4-3,3.3-4.7c5.2-9.4,1.8-18.8-1.2-28.1c6.1,0.8,14.1,0.8,19.5-2.7c1-0.7,2-1.3,2.2-2.5c-2.2-1-6.6,0.1-9.1,0.3
		c-7.3,0.4-16.1-2.3-21.7-6.9c-7.5-6.2-8.3-14.5-9-23.4c3.4-0.9,9.8-2.1,12.2-4.8c1-1,0.9-1.3,0.7-2.6c-5-2.7-15.3,3.8-22.1-0.2
		c-0.2-0.1-0.3-0.2-0.5-0.3c-2.7,5.8-5.2,11.2-10.1,15.6c-5.6,5-12.7,7.4-20.2,6.9c-7.3-0.5-11.8-3.7-16.4-9
		C186.5,728.1,192.4,725.5,198.2,705.4z"/>
	<path class="st1" d="M582.6,803.6c4.2,1.5,8.3,3.9,12.5,5.7c6.6,2.8,13.5,4.9,20.3,7.2c0.3,17.9,2.3,36.3,5,54
		c1.5,9.5,4.1,19.2,4.6,28.8c-1.5,2.8-3.3,5.4-5.5,7.7c-15,15.1-44.5,2.5-60.9,7.6c-10,3.1-35.6,16.7-44.1,16.3
		c-1.2,0-1.3-0.2-2.1-1c0-0.6,0-0.7,0.2-1.3c2.5-8.4,21.1-21.7,28.6-25.6c4.6-2.4,9.9-4,14.3-6.8c1-0.7,1.7-1.1,1.9-2.3
		c-1.6-1.1-4.3-0.9-6.2-0.8c-12.4,0.8-27.3,8.8-35.6,17.8c-3.3,3.6-5.8,8-9.2,11.5c-5.4,5.5-17.5,7.4-24.9,7.4
		c0-0.1,0.1-0.3,0.1-0.4c8.3-22.6,29.9-39.9,53.2-44.9c7.4-1.6,17.1-1.6,24-4.9l0.1-0.7c-0.4-0.4-0.5-0.5-1-0.8
		c-6.5-2.8-27.5,0.4-34.6,2.3c-17,4.9-31.6,17-41.7,31.3c-1.8,2.6-6.3,12.1-8.5,13.1c-1,0.5-2.1,0.2-3-0.3c-1.9-0.9-3.3-3-3.9-4.9
		c-0.9-2.7-0.8-6,0.5-8.6c4.4-8.6,12.2-16.2,19.2-22.8c4-3.7,8.2-8.5,12.8-11.4c11.1-7.1,37-6.7,50.4-6.2c5,0.2,10.9,0.9,15.8-0.7
		l0.2-0.6c-4.5-2.9-31.1-4.9-38.4-5.2c-13.2-0.4-27.5,2.3-37.8,11c-5.4,4.6-10.2,10.1-15.4,15c5.9-11.7,15.4-22.5,27.8-27.3
		c4.2-1.6,8.4-2.3,12.9-2.4c11.9-0.2,23.7,1.7,35.5,2.8c9.3,0.8,18.7,0.8,28,0.7c3.3,0,7-0.2,10.2,0.6c7.1,1.8,12.6,6.6,19,9.4
		l0.7-0.7c0-0.4,0.1-0.7,0-1.1c-1.2-4.5-8.9-9.5-12.5-11.9C590,842.2,587,822.2,582.6,803.6z"/>
	<path class="st2" d="M426.2,604.8c0.7,2.7,0.7,6.1,1,8.9c0.7,6.6,1.4,13.1,2.7,19.6c7.9,40,26.2,71.6,57.2,98.2
		c-1.7,8.5-5,16.6-8.2,24.7c-3.4,8.5-6.7,17.2-10.4,25.5c-3.7,8.1-7.7,16.1-11.1,24.3c-1.4-5-3.1-9.9-5-14.7
		c-1.9-4.8-4-9.5-6.3-14.2c-1.9-3.8-3.9-7.5-6-11.1c-14.3-24.1-38.3-46.2-64-57.4c-6.3-2.7-12.8-4.5-19.4-6.2
		C386.2,674.6,410.2,642.3,426.2,604.8z"/>
	<path class="st0" d="M409.3,670.7c2.2,0.2,4.6,1.4,6.6,2.4c6,3,11.7,7.4,16.8,11.7c19,16,26.2,30.5,34.2,53.3
		c-3-1.3-14.8-18.9-18.1-23.1c-6.8-8.6-14.5-16.5-22.1-24.3C420.7,684.6,413.4,678.3,409.3,670.7z"/>
	<path class="st1" d="M573.7,343.8c3-0.1,5.9-0.1,8.9,0c21.6,1,52.3,9,67.3,25.4c-8,2.9-14.8,7-21.5,12.2
		c-21.7,16.9-35.6,34-50,57.1c-32,51.6-45.9,112.1-54.3,171.7c-2.6,18.4-4.5,37-6.8,55.5c-1.1,8.5-2,17-3.5,25.4
		c-20-51.3-16.2-110.1-6.8-163.3c10.3-57.5,36.8-140.5,86.6-175.2l0-0.7c-0.5-0.3-0.6-0.3-1.3-0.4c-6.4-0.9-18.1,6-23.3,9.2
		c0.7-3.7,1.1-13.4,2.9-16.2C572.4,343.7,573.1,343.9,573.7,343.8z"/>
	<path class="st2" d="M839.6,600.8c18.4,24,31,56.8,36.7,86.4c5.7,29.6,9.3,88.1-8.2,113.5c-12.6,18.3-46.9,22.9-67.5,26.6l-5-12.4
		c-6.7-19.2-9.7-37.9-11.7-58c5.9,3.5,12.5,5.6,19.4,5c7.4-0.7,13.8-4.3,18.4-10c9.2-11.2,10.6-26.7,9.1-40.6
		c-2.9-27.2-16.9-49.5-38-66.4C812.5,634,828.3,620.5,839.6,600.8z"/>
	<path class="st1" d="M289.8,846.7c1.4-0.3,19.6,10.6,22.6,12.1c26.5,13,60,24.1,88.8,30.7c-9,2.2-18.2,3.7-27.3,5.4l-47.7,8.9
		L273.6,914c-35.4,6.6-71.2,13.1-106.2,21.6c-6.5-6.2-13.1-11.2-20.6-16.1c-28.1-17.8-59.8-27.5-91.4-37
		c47.8-6.7,95.8-12.4,143.6-19.5c13.4-2,26.9-3.8,40.3-6.2c2.4,2.4,4.4,5.3,6.5,8c4.7,5.8,18.2,20.1,25.6,20.8
		c0.7-0.3,1.2-0.3,1.6-1c2.7-4.5-6.1-27.9-7.7-34C273.4,848.7,281.7,847.8,289.8,846.7z"/>
	<path class="st2" d="M703.7,696c0.5,0,0.2,0,0.8,0.4c-1.1,4.2-3.2,8.1-4.4,12.2c-5.3,17.3-5.5,42.3,2.9,58.5
		c3.8,7.4,10.2,12.3,18,14.7c8,2.5,14.8,1.2,22.1-2.6c-7,18.7-10.8,35.2-20,53.7c-21.1,1.4-42-0.6-63-0.9
		c18.3,6.1,38.6,8.4,57.8,10.1c-2.7,4.1-5.5,8.1-8.3,12.1c4.8,7.3,11.1,12.8,18.9,16.6c9.8-4.6,16-18.1,20.2-27.4
		c8,0.2,16.1-0.4,24.1-0.9c2.4,7.1,5.8,15.6,11.9,20.3c2.5,1.9,5.3,2.9,8.4,2.4c6.8-1.2,16.2-9.2,20.1-14.6
		c-3.4-6.1-7.3-11.9-10.6-18c17.4,0.8,35.5-0.5,52-6.3C870,820.8,878,813,885,798.3c2.9,1.4,5.4,3.1,7.9,5.1
		c13.8,11.6,18.4,27.3,20.1,44.7c-7.5,3-15.6,4.5-23.5,6c-9.6,1.9-19.3,3.4-29,4.6c-11.8,1.3-23.8,2.1-35.5,4.2
		c20.9,5.2,58,3.6,79.4,0.4c12.3-1.7,26.8-5.4,37.2-12.5c2.1-1.5,5.2-3.9,5.4-6.7c0.2-2-0.5-3.7-1.8-5.3c-5.2-6.4-17.5-8.8-25.3-9.6
		c-0.6-4.6-1.4-9.1-2.6-13.6c3.3,0.9,6.7,1.7,10,2.6c13,3.5,45.7,13.5,52.1,25.4c1.3,2.4,1.5,5,0.6,7.6
		c-2.5,6.8-12.4,11.8-18.6,14.5c-25.6,11-59.9,15.8-87.4,19.2c-13.1,1.6-26.3,3.4-39.5,4.5c-11.4,1-23,1.2-34.4,1.7
		c-43.1,1.6-85.7,0.4-128.1-8.3c-13.8-2.9-28.1-6.2-41.2-11.5c-1.6-5.6-1.7-11.9-2.4-17.7c-1.2-11.5-2.6-23-4-34.5
		c2.6,0.7,5.2,1.4,7.8,1.9c18.2,3.8,64.4,3.4,80.3-7c-2.8-6.1-6.1-11.9-8.6-18.1c-12-29.8-18.7-60.7-24.7-92.1L703.7,696z"/>
	<path class="st2" d="M648.7,382.4c0.2,0,0.4,0,0.6,0c5.5,1,17.2,9.2,22.7,12.4c59.5,34.8,118.8,97.8,153.4,156.9l-0.5,1.4
		c-19,57.7-98.7,91.4-149,116.8c-1.2-9.4-4.8-54-3.6-60.8c1.3-7.1,7.1-14.8,10.1-21.5c10-22.8,14-52.2,9.5-76.7
		c-1.8,7.9-2.3,16.2-3.5,24.2c-2.8,18.4-8.4,39.9-17.3,56.3c-0.3-11.3-1.2-22.6-1.8-33.9c-1.2-21.6-2.2-43.3-7.6-64.3
		c-0.9-2.8-1.9-6.5-3.6-8.8c-0.7-0.9-0.3-0.7-1.3-0.8c-0.7,4.5,0.1,9.7,0.2,14.3l0.4,28.2c0.7,56.4,2.7,112.5,10.3,168.5
		c3.4,25.3,8,53.2,16.9,77.1c-65.1-10-104.5-31.9-159.4-66.2c1.6-24.7,5.4-48.9,8.7-73.4c3.9-29.4,7.5-58.6,14.6-87.5
		C563.7,482.5,591.5,416.8,648.7,382.4z"/>
	<path class="st1" d="M394.3,189.2c4.8-0.3,9.7-0.4,14.5-0.3c4.9,0.1,9.7,0.4,14.5,0.9c4.8,0.5,9.6,1.1,14.4,2
		c4.8,0.8,9.5,1.9,14.2,3.1c-14.6,18.5-30.6,35.3-46.5,52.6c-13.4,14.7-26.7,29.6-39.9,44.5c-3.6,4-21.7,22.9-23,26.1
		c-0.1,0.2-0.1,0.5-0.2,0.7l-0.2-0.2c-0.2,0.2-0.3,0.4-0.5,0.7l-0.4-0.1l0,0.7c2.4,1.6,5.8,2.4,8.5,3.6c2.6,1.1,4.9,2.8,7.2,4.4
		c27.2,19.5,52,54.5,70.5,82.1c4.6,6.9,13.5,22.7,22,24.3c2,0.4,4.1,0.2,5.7-1.2c9.7-8.7-6.6-47.2-9.3-58.3
		c-1.6-6.8-1.6-14.8-1-21.7c1.2-13.5,7-26.3,17.5-35c7.7-6.4,18.1-10.4,28.2-9.3c8,0.9,14.6,5.8,19.4,12c13,17,17.7,42,14.8,62.8
		c-2.3,16.3-9.6,35.7-23.3,45.9c-9,6.7-17.7,6.5-28.2,4.9c-1.6-3.3-3.5-6.1-5.7-9c3.2,10.4,3.1,20.5,2,31.3
		c-3.7,39.2-28.4,83.4-58.9,108.6c-0.1-1.8-0.1-3.6-0.2-5.4c-0.1-2.8-0.1-8.8-2.2-10.7c-1.6,1.2-1.6,3.3-1.9,5.2
		c-3.2,23.2-5.3,43.3-15.5,64.8c-1.5-5.1-4.6-28.2-6.9-30.3c-0.9,0.7-1.1,1.2-1.5,2.3c-2.2,6.7-3,13.6-5.6,20.4
		c-6.1,15.6-15.2,27.9-27.1,39.6c0.2-0.5,0.4-1,0.6-1.4c2.3-5.5,7.3-25.8,4.7-30.8c-0.4-0.7-0.7-0.6-1.3-0.8c-2,1.2-3.5,5.3-4.8,7.4
		c-6.3,10.5-14.8,21.7-24.7,29.1l-0.6,0.4c2.8-8.9,5.4-17.6,6.1-26.9c0,0,0,0,0,0c-0.1-1.2-0.1-1.8-0.8-2.8l-0.8,0.1
		c-3.6,5.2-4.5,12.6-8.5,17.4c-8.6,10.5-19.1,17.9-32.2,21.1c3.9-4.8,8.1-9.7,11.1-15.1c7-12.5,9-29.5,8.2-43.5
		c-1.2-21.8-10.4-44.8-26.8-59.5c3.9-0.3,7.6-0.4,11.5-0.2c4.2,4.5,8.2,9.2,11.7,14.3c5.7,8.3,12,18.9,10,29.2
		c22-6.7,49.3-17.5,63.1-36.7c8.3-11.6,9.6-24.9,7.2-38.6c-2.5-14.6-7.5-24.1-19.6-32.8c-3.7,4.5-7.6,9-12.1,12.7
		c-14.6,12.1-35.2,19-53.7,22c-4.5,0.7-13.5,0.5-17.2,2.6l0.2,0.7c4.3,1.9,10.2,1.7,14.9,1.7c20.5,0.1,42.9-7,59.5-19.2
		c4.3-3.2,8.1-7,11.9-10.8c2.1,2.4,3.9,4.8,5.4,7.6c5.9,11.1,7.1,25.9,3.4,37.9c-7.7,25-36.4,35-57.3,46.1
		c-2.7-15.3-9.6-27.9-21.1-38.3l8.8-2.5c3.6,2.4,6.5,5.2,9.5,8.4c4.9,5.5,7.6,10.9,10.2,17.8c4.8-2.5,9.2-6.1,13.6-9.3
		c9.7-7,19.2-14.1,28.2-21.9c3.3-11.2,2.4-21.6-2.7-32.1c-0.8,0.7-1.6,1.3-2.4,2c-20.1,15.5-56.1,27.7-81.1,28.8
		c-7.8,0.3-15.6-1-23.4-1.9c2.4,2.7,5.1,5.1,7.7,7.5c0.3,11.1-1.3,21.5-4.2,32.3c-0.2-5-0.6-9.9-1.7-14.8c-1.1-4.8-3.1-9.4-4.6-14.1
		c-1.2-3.8-1.9-7.8-2.8-11.6c12.1-9.2,18.1-18.7,28.5-28.8c8.8-8.6,18.2-16.5,27-25c7.8-7.5,14.9-15.8,22.4-23.6
		c10-10.4,20.1-20.3,29.5-31.2c-1.7,4.5-7.4,13.3-6.5,18c3.3,1.3,38-12.7,43-14.6c-9.6,16.5-27.1,24.7-42.2,34.9
		c-1.9,1.3-5.4,3.3-5.8,5.7c2.9,0.8,17.4-5.6,21.2-7.1c-5.8,5.7-11.8,11.2-18.4,16c-3.7,2.7-28.6,18.4-29.2,19.5
		c0.5,0.2,0.7,0.4,1.2,0.5c2.3,0.3,5.6-1.1,7.8-1.8c13.5-4.6,27.4-12.2,38.3-21.5c16.8,12.4,31.9,35.1,38.4,54.7
		c2.3,7,3.1,14.2,5.1,21.2l0.5,0c2-5.3,0.3-13-0.5-18.6c-3.7-25.5-18.4-50.5-39-66c1.3-1.1,2.5-2.3,3.7-3.4
		c7.9-7.7,32.1-35.4,32.3-45.8c-0.6-1.3-0.6-1.4-1.8-2c-2.4,0.3-10.3,5.8-13.1,7.3c-10.5,5.4-21.6,10.2-32.7,14.1
		c2.7-5.4,5.9-13.5,6.4-19.5c0.1-1.4,0-2.3-0.9-3.4l-1.3,0c-0.6,0.3-1.1,0.6-1.6,1c-3.3,2.8-6.3,6.6-9.4,9.8l-23,22.5
		c-6.7,6.7-13.4,13.3-20.2,19.9c-5.1,4.9-10.4,9.5-15.1,14.7c-3.7-1.7-7.5-2.9-11.7-2.9c-7.7,0-14,4.4-19.2,9.6
		c5.8-1.5,10.7-1.4,16.5-0.6c-4,4.5-7,9.9-10.6,14.7c-5.6,7.5-12.3,14.4-19.1,20.7c-10.8,10-24.1,19.1-39.5,18.3
		c-5.5-0.3-11.9-1.7-15.6-6.1c-3.7-4.3-4.2-9.6-3.7-15.1c14.9-4.3,32.1-16.1,40.5-29.4c-0.1,0.1-0.3,0.1-0.4,0.2
		c-6.9,3-13.2,7.3-19.9,10.8c-2.3-2.7-4.3-6-6.3-8.9c-4.1-5.8-8.4-11.5-12.1-17.5c13.1,1.9,19.1,8.4,30.8,12.6
		c-0.4-1.9-0.9-3.7-1.4-5.6c-3.4-12-10-24.9-21.3-31.2c3.1,6.1,6.3,11.9,8.8,18.4c-7.3-3.9-13-4.8-21.1-2.7
		c-2.2-6.7-5-13.2-7.2-19.9c-5-15-7.7-30.2-8.6-46c-2.7-45.2,9.2-93.1,39.8-127.5c13.8-15.5,29.8-28.3,47.1-39.7
		C303.5,206.1,346,192,394.3,189.2z"/>
	<path class="st0" d="M240.1,371.2c1.6,1.2,1.5,2,1.6,3.9c2.1,30.2,3.8,41.2,17.7,68.5c-0.2-1.8-0.4-3.5-0.4-5.3
		c-0.4-11.9,2.3-25.4,10.9-34.3c5.8-6,13.9-8.8,22.1-9c8.6-0.2,27.1,4.8,33.2,10.7l-0.3,0.8l-1.7,0.1c-2.7-0.2-5.4-0.4-8.2-0.4
		c-13.5,0-27.1,3.6-36.8,13.5c-7,7.1-11.1,16.3-14,25.7c-0.5,1.7-1.5,4-1.4,5.9c0.1,1,0.1,1.9,0.1,2.9l-0.7-0.1
		c-7.8-7.1-14.4-18.3-18.3-28C237.6,410.9,233.7,386.5,240.1,371.2z"/>
	<path class="st0" d="M485.4,326.1c6.4-0.4,9.9,2.1,14.6,6c-0.6-0.1-1.2-0.3-1.8-0.4c-3.3-0.6-5.5,0-8.2,2
		c-10.7,7.6-16.5,26.6-18.4,38.8c1.3-2,2.5-4,4.1-5.7c3.2-3.5,7.5-6.2,12.4-6.3c4.6-0.1,9.2,2.1,12.4,5.4c4.3,4.4,5.7,10.7,5.6,16.7
		c-0.1,6.5-2.3,12.7-7,17.2c1.1-4.8,1.8-9.8,1.5-14.8c-0.3-5.1-1.9-10.9-6-14.4c-1.7-1.4-3.9-2.2-6.1-1.9c-5.2,0.7-9.1,4.7-12.2,8.6
		l-0.4,0.8c1.4,1.6,6.1,1.2,8.2,2.6c5.2,3.3,9,9.4,10.2,15.4c0.7,3.5,1,11-1.6,13.9c-0.8,0.9-1.3,1-2.4,1
		c-1.8-1.8-3.8-10.2-6.5-13.7c-2.5-3.3-5.7-5.4-9.8-5.9c-6.9-0.8-5.3,16.5-10.8,19.7c-1.1,0.7-1.8,0.4-3,0.2c-0.5-0.7-1-1.2-1.2-2
		c-2.1-8.3,3.8-46.6,6.4-56.5c1.4-5.4,3.4-10.6,6.2-15.4C474.9,331.7,478.9,327.7,485.4,326.1z"/>
	<path class="st0" d="M240.9,293.2c0.4-0.1,0.9-0.1,1.3-0.1c15.2-1,41.5,1.2,53.4,11.7c-8.1,0.5-15.7,2.6-23.5,4.6
		c1.5,0.4,2.9,0.8,4.4,1.3c16.6,5.9,26.1,25.3,33.2,40.2c-6.3-3-12-7-18.4-9.8c-19.5-8.7-37.2-8-56.1,2.2c-4.6,2.5-9.4,6.4-14.6,7.3
		c-2.6,0.4-5.3,0.1-7.4-1.6c-2.7-2.2-3.9-6-4.3-9.3c-1.3-11.5,4.6-25.4,11.6-34.3C225.9,298.5,232.2,294.2,240.9,293.2z"/>
	<path class="st1" d="M238.4,302l0.3,0.1c0.1,0.7-6.3,8.9-6.6,12.4l0.6,0.6c2.5-0.5,4.8-2.6,6.9-3.9c11.3-7.4,18.4-9.2,31.9-9.2
		c-7,2.9-12.7,7.2-18.5,12c6.8,0,13.7,0,20.1,2.3c5.1,1.8,13.4,7.4,15.8,12.3l-0.5,0.1c-19.8-8.6-40.9-5.5-59.4,4.9
		c-3,1.7-7.8,5.9-11.4,5.8c-0.7-0.6-1.1-0.9-1.4-1.8c-1.5-3.3-0.3-9.1,0.8-12.4C220.3,314.7,228.7,306.9,238.4,302z"/>
</g>
</svg>
